<?xml version="1.0" encoding="UTF-8"?>
<svg width="184px" height="156px" viewBox="0 0 184 156" version="1.1" xmlns="http://www.w3.org/2000/svg" xmlns:xlink="http://www.w3.org/1999/xlink">
    <!-- Generator: Sketch 51.3 (57544) - http://www.bohemiancoding.com/sketch -->
    <title>sway_CHICAGO</title>
    <desc>Created with Sketch.</desc>
    <defs>
        <polygon id="path-1" points="0.06 0.40636531 167.970361 0.40636531 167.970361 155.94 0.06 155.94"></polygon>
        <polygon id="path-3" points="0.875390303 0.636881191 69.915 0.636881191 69.915 72.2722511 0.875390303 72.2722511"></polygon>
    </defs>
    <g id="Page-1" stroke="none" stroke-width="1" fill="none" fill-rule="evenodd">
        <g id="sway_CHICAGO">
            <g id="Group-3">
                <mask id="mask-2" fill="white">
                    <use xlink:href="#path-1"></use>
                </mask>
                <g id="Clip-2"></g>
                <path d="M66.442,75.202 C55.718,80.403 43.624,87.743 32.297,98.589 C12.214,117.646 7.049,130.473 7.999,138.636 C8.844,145.91 13.4,149.517 20.85,148.649 C37.884,146.671 70.584,106.188 67.449,79.22 C67.285,77.8 66.962,76.578 66.442,75.202 Z M68.224,33.274 C73.354,29.44 81.731,16.42 81.215,11.984 C80.906,9.322 79.554,6.963 75.118,7.479 C59.148,9.335 20.253,41.365 22.295,58.931 C22.563,61.237 23.76,63.796 28.016,63.301 C32.984,62.724 42.065,60.41 50.404,59.442 C59.277,58.411 66.651,61.509 70.817,66.42 L88.202,59.219 C97.637,54.99 112.069,51.313 125.261,49.267 C143.928,46.371 160.633,46.029 161.666,45.862 C169.785,44.553 168.487,50.675 166.38,51.1 C164.74,51.533 150.068,51.617 128.797,54.505 C118.19,55.946 104.446,59.568 96.321,62.362 C92.794,63.575 78.369,69.499 73.919,71.453 C74.42,72.656 74.563,73.898 74.688,74.962 C78.686,109.382 42.613,153.314 20.965,155.831 C9.433,157.172 1.271,150.387 0.158,140.804 C-1.203,129.095 6.073,112.785 28.204,92.77 C39.928,82.238 52.064,75.253 62.788,70.05 C58.745,66.205 53.161,66.133 46.951,66.855 C39.145,67.762 32.057,70.205 26.201,70.884 C20.877,71.504 14.078,68.697 13.192,61.067 C10.552,38.357 53.574,3.149 76.284,0.51 C81.962,-0.151 88.545,2.323 89.285,8.708 C90.337,17.757 75.713,35.82 72.419,39.979 C70.203,42.574 68.615,44.379 66.131,44.667 C63.647,44.956 62.064,43.7 61.775,41.218 C61.486,38.733 63.293,37.265 68.224,33.274 Z" id="Fill-1" fill="#FFFFFF" mask="url(#mask-2)"></path>
            </g>
            <path d="M86.641,76.465 C87.193,78.949 84.768,89.21 85.641,93.125 C85.831,93.985 86.129,94.42 86.798,94.271 C89.949,93.57 93.342,84.496 94.356,77.354 C94.612,74.894 95.397,73.014 96.352,72.802 C97.305,72.588 99.109,72.588 99.471,74.212 C99.832,75.836 98.178,79.211 99.261,84.08 C100.175,88.188 101.577,90.882 103.487,90.456 C107.402,89.585 109.895,80.51 108.342,73.541 C107.961,71.821 107.364,70.048 106.675,69.2 C105.963,68.257 103.767,67.845 103.404,66.221 C103.108,64.883 103.498,63.493 105.314,63.089 C108.274,62.43 110.271,65.994 111.716,72.489 C113.608,80.987 109.78,93.064 103.574,94.446 C99.181,95.423 96.633,91.178 95.379,87.349 C93.661,92.241 89.877,98.198 86.726,98.897 C85.102,99.26 82.31,98.878 81.63,95.822 C80.948,92.765 81.541,81.91 81.571,78.897 C81.602,75.884 82.408,75.003 83.84,74.684 C84.606,74.515 86.409,75.415 86.641,76.465" id="Fill-4" fill="#FFFFFF"></path>
            <g id="Group-8" transform="translate(114.000000, 56.000000)">
                <mask id="mask-4" fill="white">
                    <use xlink:href="#path-3"></use>
                </mask>
                <g id="Clip-6"></g>
                <path d="M5.171,29.261 C5.298,29.833 5.809,30.323 6.571,30.151 C8.195,29.79 18.206,16.235 17.846,14.613 C17.74,14.136 16.182,14.785 15.947,13.733 C15.819,13.161 15.405,12.652 14.642,12.821 C10.536,13.734 4.129,24.581 5.171,29.261 Z M21.992,7.577 C23.522,7.236 24.666,7.885 24.922,9.031 C25.198,10.272 23.439,14.07 22.282,18.336 C21.607,20.691 21.457,22.73 21.777,24.162 C22.053,25.404 22.667,26.368 23.527,26.179 C26.964,25.413 31.335,18.026 33.849,12.656 C34.579,10.99 35.226,9.843 36.181,9.632 C37.136,9.418 37.646,9.905 37.816,10.669 C38.007,11.529 37.753,12.188 37,13.758 C33.626,20.221 27.816,29.233 23.04,30.295 C20.079,30.955 18.084,29.194 17.554,26.807 C17.319,25.757 17.215,24.375 17.024,23.517 C16.894,22.943 16.831,22.657 16.638,22.701 C16.066,22.828 14.943,24.98 13.267,27.36 C9.651,32.274 7.114,34.842 4.919,35.33 C3.964,35.543 1.736,34.536 1.225,32.246 C-0.942,22.505 7.362,10.733 15.171,8.894 C16.985,8.491 19.193,10.306 19.575,10.221 C20.339,10.05 20.369,7.938 21.992,7.577 Z" id="Fill-5" fill="#FFFFFF" mask="url(#mask-4)"></path>
                <path d="M42.827,48.042 C38.702,55.173 38.152,62.612 38.96,66.24 C39.386,68.15 41.072,68.977 42.599,68.637 C51.768,66.596 54.572,45.427 53.179,35.113 C52.84,35.389 47.504,39.785 42.827,48.042 Z M43.174,72.118 C39.737,72.883 35.757,70.762 34.844,66.656 C33.886,62.358 34.956,54.102 40.226,44.911 C45.051,36.422 52.255,31.41 52.691,31.112 C51.817,23.589 50.551,12.947 50.444,12.469 C50.337,11.992 50.061,10.749 49.68,10.836 C49.583,10.856 49.414,10.995 49.362,11.206 C47.687,15.387 42.374,27.094 37.504,28.179 C35.88,28.54 34.075,27.638 33.502,25.061 C32.928,22.482 33.861,13.154 34.443,9.918 C35.099,6.565 35.956,4.568 37.389,4.25 C38.823,3.931 39.945,4.483 40.137,5.341 C40.309,6.105 39.874,7.306 39.036,9.397 C37.806,12.877 37.068,21.261 37.257,22.121 C37.471,23.076 37.745,23.414 38.319,23.285 C40.707,22.755 45.743,11.612 46.942,8.439 C47.832,6.136 48.724,3.833 49.241,3.016 C49.816,1.987 51.671,0.87 52.435,0.701 C53.2,0.532 54.123,0.626 54.4,1.867 C54.676,3.108 53.647,5.242 54.508,10.462 C55.349,15.588 56.136,22.728 57.124,29.425 C57.773,29.178 58.42,28.937 59.089,28.787 C63.575,27.787 68.818,28.826 69.819,33.315 C70.199,35.033 69.458,37.102 67.643,37.506 C65.827,37.909 65.118,36.967 64.882,35.915 C64.651,34.865 64.81,34.228 64.596,33.273 C64.342,32.129 62.411,31.556 59.545,32.192 C58.876,32.342 58.039,32.628 57.413,32.967 C58.649,47.527 55.208,69.44 43.174,72.118 Z" id="Fill-7" fill="#FFFFFF" mask="url(#mask-4)"></path>
            </g>
            <path d="M90.952,105.183 C90.952,105.183 125.393,91.041 151.451,91.826 C154.404,91.915 156.556,98.363 147.524,97.588 C142.94,97.196 126.047,98.112 99.464,108.196 C93.857,110.322 72.618,118.235 67.642,121.247 C67.642,121.247 72.149,112.937 74.059,111.6 L90.952,105.183" id="Fill-9" fill="#FFFFFF"></path>
            <path d="M71.42,39.54 C70.669,43.225 66.843,45.176 62.746,44.721 C56.511,44.029 52.321,39.271 53.631,35.517 C54.869,31.966 57.69,28.446 64.63,30.279 C68.616,31.331 72.172,35.855 71.42,39.54" id="Fill-10" fill="#FFFFFF"></path>
            <path d="M66.205,142.117 L66.205,142.08 C66.205,138.34 69,135.241 72.892,135.241 C75.291,135.241 76.727,136.092 78.049,137.338 L77.029,138.433 C75.914,137.376 74.668,136.62 72.873,136.62 C69.945,136.62 67.754,139.001 67.754,142.042 L67.754,142.08 C67.754,145.139 69.964,147.539 72.873,147.539 C74.686,147.539 75.877,146.84 77.142,145.631 L78.125,146.595 C76.745,147.992 75.234,148.918 72.835,148.918 C69.019,148.918 66.205,145.914 66.205,142.117" id="Fill-11" fill="#FFFFFF"></path>
            <polyline id="Fill-12" fill="#FFFFFF" points="82.333 135.468 83.825 135.468 83.825 141.343 91.457 141.343 91.457 135.468 92.949 135.468 92.949 148.691 91.457 148.691 91.457 142.741 83.825 142.741 83.825 148.691 82.333 148.691 82.333 135.468"></polyline>
            <polygon id="Fill-13" fill="#FFFFFF" points="98.423 148.691 99.916 148.691 99.916 135.468 98.423 135.468"></polygon>
            <path d="M104.807,142.117 L104.807,142.08 C104.807,138.34 107.603,135.241 111.494,135.241 C113.894,135.241 115.329,136.092 116.652,137.338 L115.631,138.433 C114.517,137.376 113.27,136.62 111.476,136.62 C108.547,136.62 106.357,139.001 106.357,142.042 L106.357,142.08 C106.357,145.139 108.567,147.539 111.476,147.539 C113.289,147.539 114.479,146.84 115.744,145.631 L116.727,146.595 C115.348,147.992 113.837,148.918 111.438,148.918 C107.622,148.918 104.807,145.914 104.807,142.117" id="Fill-14" fill="#FFFFFF"></path>
            <path d="M129.511,143.855 L126.507,137.111 L123.485,143.855 L129.511,143.855 Z M125.827,135.374 L127.225,135.374 L133.251,148.691 L131.646,148.691 L130.097,145.196 L122.9,145.196 L121.331,148.691 L119.801,148.691 L125.827,135.374 Z" id="Fill-15" fill="#FFFFFF"></path>
            <path d="M136.1,142.117 L136.1,142.08 C136.1,138.453 138.764,135.241 142.731,135.241 C144.96,135.241 146.339,135.884 147.661,136.998 L146.697,138.132 C145.678,137.244 144.544,136.62 142.674,136.62 C139.746,136.62 137.65,139.095 137.65,142.042 L137.65,142.08 C137.65,145.234 139.67,147.577 142.882,147.577 C144.393,147.577 145.791,146.991 146.697,146.255 L146.697,142.968 L142.674,142.968 L142.674,141.626 L148.133,141.626 L148.133,146.896 C146.905,147.992 145.054,148.918 142.825,148.918 C138.669,148.918 136.1,145.895 136.1,142.117" id="Fill-16" fill="#FFFFFF"></path>
            <path d="M164.451,142.117 L164.451,142.08 C164.451,139.076 162.26,136.62 159.237,136.62 C156.215,136.62 154.062,139.038 154.062,142.042 L154.062,142.08 C154.062,145.083 156.252,147.539 159.275,147.539 C162.297,147.539 164.451,145.121 164.451,142.117 Z M152.512,142.117 L152.512,142.08 C152.512,138.433 155.251,135.241 159.275,135.241 C163.299,135.241 166,138.396 166,142.042 C166.019,142.06 166.019,142.06 166,142.08 C166,145.725 163.261,148.918 159.237,148.918 C155.214,148.918 152.512,145.763 152.512,142.117 Z" id="Fill-17" fill="#FFFFFF"></path>
        </g>
    </g>
</svg>