<?xml version="1.0" encoding="UTF-8"?>
<svg width="95px" height="24px" viewBox="0 0 95 24" version="1.1" xmlns="http://www.w3.org/2000/svg" xmlns:xlink="http://www.w3.org/1999/xlink">
    <!-- Generator: Sketch 51.3 (57544) - http://www.bohemiancoding.com/sketch -->
    <title>logo-rythmique</title>
    <desc>Created with Sketch.</desc>
    <defs>
        <polygon id="path-1" points="0.337 0.026 86.269 0.026 86.269 23.94 0.337 23.94"></polygon>
    </defs>
    <g id="Page-1" stroke="none" stroke-width="1" fill="none" fill-rule="evenodd">
        <g id="logo-rythmique">
            <g id="Group-6" transform="translate(8.000000, 0.000000)">
                <mask id="mask-2" fill="white">
                    <use xlink:href="#path-1"></use>
                </mask>
                <g id="Clip-2"></g>
                <path d="M4.549,22.684 L4.549,13.396 L0.337,0.798 L2.295,0.798 L4.173,6.838 C4.688,8.494 5.083,9.825 5.498,11.351 L5.538,11.351 C5.913,9.923 6.368,8.494 6.882,6.838 L8.801,0.798 L10.758,0.798 L6.289,13.364 L6.289,22.684 L4.549,22.684" id="Fill-1" fill="#FFFFFF" mask="url(#mask-2)"></path>
                <path d="M62.882,10.576 C62.882,6.448 61.794,2.197 59.57,2.197 C57.284,2.197 56.165,6.356 56.18,10.82 C56.165,15.194 57.393,19.138 59.507,19.138 C61.669,19.138 62.882,15.286 62.882,10.576 Z M64.002,24.001 C62.587,23.266 61.203,22.441 59.99,21.616 C59.772,21.462 59.554,21.309 59.352,21.309 C56.864,21.126 54.734,17.518 54.734,10.882 C54.734,4.277 56.787,0.026 59.617,0.026 C62.462,0.026 64.312,4.369 64.312,10.454 C64.312,15.745 63.068,19.138 61.327,20.33 L61.327,20.454 C62.369,20.973 63.504,21.462 64.39,21.768 L64.002,24.001 Z" id="Fill-3" fill="#FFFFFF" mask="url(#mask-2)"></path>
                <path d="M67.699,0.935 L67.699,10.134 C67.699,13.615 69.024,15.091 70.803,15.091 C72.781,15.091 74.047,13.569 74.047,10.134 L74.047,0.935 L75.787,0.935 L75.787,9.996 C75.787,14.769 73.632,16.729 70.744,16.729 C68.015,16.729 65.959,14.908 65.959,10.088 L65.959,0.935 L67.699,0.935" id="Fill-4" fill="#FFFFFF" mask="url(#mask-2)"></path>
                <polyline id="Fill-5" fill="#FFFFFF" mask="url(#mask-2)" points="85.675 9.189 80.495 9.189 80.495 14.792 86.269 14.792 86.269 16.475 78.774 16.475 78.774 0.935 85.972 0.935 85.972 2.618 80.495 2.618 80.495 7.529 85.675 7.529 85.675 9.189"></polyline>
            </g>
            <path d="M1.721,8.09 L3.481,8.09 C5.319,8.09 6.486,6.914 6.486,5.139 C6.486,3.133 5.24,2.256 3.421,2.233 C2.591,2.233 1.997,2.326 1.721,2.418 L1.721,8.09 Z M0,1.012 C0.87,0.804 2.116,0.688 3.303,0.688 C5.142,0.688 6.328,1.081 7.159,1.957 C7.831,2.648 8.207,3.709 8.207,4.908 C8.207,6.96 7.1,8.32 5.695,8.874 L5.695,8.943 C6.724,9.358 7.337,10.464 7.653,12.079 C8.088,14.246 8.404,15.745 8.682,16.344 L6.901,16.344 C6.684,15.906 6.388,14.569 6.012,12.632 C5.616,10.487 4.904,9.681 3.342,9.611 L1.721,9.611 L1.721,16.344 L0,16.344 L0,1.012 Z" id="Fill-7" fill="#FFFFFF"></path>
            <polyline id="Fill-8" fill="#FFFFFF" points="23.232 2.771 19.179 2.771 19.179 1.065 29.046 1.065 29.046 2.771 24.973 2.771 24.973 16.605 23.232 16.605 23.232 2.771"></polyline>
            <polyline id="Fill-9" fill="#FFFFFF" points="32.251 1.065 32.251 7.566 38.697 7.566 38.697 1.065 40.438 1.065 40.438 16.605 38.697 16.605 38.697 9.319 32.251 9.319 32.251 16.605 30.53 16.605 30.53 1.065 32.251 1.065"></polyline>
            <path d="M54.658,9.78 C54.559,7.613 54.44,5.007 54.46,3.071 L54.401,3.071 C53.946,4.892 53.392,6.829 52.719,8.973 L50.367,16.513 L49.061,16.513 L46.906,9.111 C46.273,6.921 45.738,4.915 45.363,3.071 L45.323,3.071 C45.283,5.007 45.185,7.613 45.067,9.941 L44.71,16.605 L43.068,16.605 L43.998,1.065 L46.194,1.065 L48.468,8.581 C49.022,10.495 49.477,12.201 49.813,13.814 L49.872,13.814 C50.209,12.247 50.683,10.54 51.276,8.581 L53.649,1.065 L55.844,1.065 L56.674,16.605 L54.994,16.605 L54.658,9.78" id="Fill-10" fill="#FFFFFF"></path>
            <polygon id="Fill-11" fill="#FFFFFF" points="59.326 16.605 61.047 16.605 61.047 1.065 59.326 1.065"></polygon>
        </g>
    </g>
</svg>