<?xml version="1.0" encoding="UTF-8"?>
<svg width="286px" height="208px" viewBox="0 0 286 208" version="1.1" xmlns="http://www.w3.org/2000/svg" xmlns:xlink="http://www.w3.org/1999/xlink">
    <!-- Generator: Sketch 51.3 (57544) - http://www.bohemiancoding.com/sketch -->
    <title>logo-speakeasy-swing</title>
    <desc>Created with Sketch.</desc>
    <defs></defs>
    <g id="Page-1" stroke="none" stroke-width="1" fill="none" fill-rule="evenodd">
        <g id="logo-speakeasy-swing" transform="translate(-1.000000, 0.000000)" fill="#FFFFFF" fill-rule="nonzero">
            <path d="M98.09,85.62 C107.32,79.05 116.2,73.09 126.77,68.91 C126.01,68.04 121.77,61.08 120.77,61.73 C120.966864,62.7172927 120.773301,63.7424588 120.23,64.59 C117.57,61.59 115.89,57.54 113.5,54.27 C112.71,53.19 104.24,43.01 104.1,43.1 C107.04,41.17 115.27,53.1 117.32,54.62 C118.77,52.3 121.63,59.08 122.7,60.69 C123.77,62.3 125.03,63.91 126.14,65.56 C126.58,66.23 127,66.91 127.39,67.56 C127.67,68.81 128.3,68.92 129.28,67.88 C136.01,67.22 142.05,62.07 149.21,63.88 C152.44,64.69 155.45,67.05 157.95,69.15 C159.14,70.15 160.21,71.85 161.84,72.21 C164,72.67 162.55,73.14 163.53,70.78 C164.44,68.59 168.68,51.36 171.25,51.57 C170.99,53.36 170.93,55.22 170.54,56.98 C172.29,55.45 173.42,52.39 174.72,50.43 C176.49,47.78 178.11,44.91 179.96,42.35 C180.66,41.35 189.96,30.5 190.64,32.05 C184.93,36.9 181.07,43.31 177.23,49.74 C175.245747,52.9275489 173.439645,56.2225997 171.82,59.61 C171.03,61.32 170.67,64.08 169.41,65.43 C167.7,67.26 168.97,66.03 167.63,65.03 C165.39,68.42 163.11,72.6 165.98,75.8 C168.85,79 172.39,81.8 175.49,84.91 C176.42,85.83 178.2,88.51 179.49,88.34 C180.25,88.24 182.72,84.34 183.34,83.61 C185.8,80.76 188.25,77.69 190.97,75.12 C191.72,75.99 189.97,77.82 189.97,78.87 C194.08,76.49 197.55,73.24 201.59,70.76 C203.7,69.46 209.96,63.28 212.48,64.61 C207.29,68.5 201.75,71.83 196.74,76.01 C194.3,78.01 191.98,80.21 189.69,82.41 C188.98,83.09 185.62,87.04 184.69,86.8 C184.38,86.25 185.48,84.92 185.47,84.33 C184.26,84.33 181.53,87.24 181.18,88.25 C180.31,90.85 182.18,91.25 184.01,93.15 C185.84,95.05 187.64,95.72 189.62,97.44 C191.88,99.44 191.87,100.64 192.31,103.44 C192.64,105.55 192.05,105.87 194.48,103.68 C196.04,102.29 197.53,100.76 199.1,99.43 C200.486334,98.2851796 201.931645,97.2137137 203.43,96.22 C204.05,95.79 205.51,94.22 206.3,94.57 C207.3,95.06 205.98,95.83 206.07,96.65 C211.29,96.98 217.72,91.41 222.9,93.43 C219.62,94.85 215.9,95.43 212.47,96.65 C209.04,97.87 204.69,101.3 201.26,101.5 C202.97,98.84 199.34,101.15 198.48,101.72 C197.17,102.59 195.61,103.38 194.73,105 C193.6,107.07 194.45,107 196.11,108.69 C197.6,110.21 198.87,112 200.25,113.62 C201.31,114.88 202.54,117.18 204.2,117.25 C205.43,117.31 207.34,115.74 208.63,115.36 C210.63,114.76 220.75,112.11 222,113.73 C221.71,114.59 219.35,114.33 219.52,115.12 C219.52,115.35 231.34,116.24 232.16,116.36 C236.825291,116.918943 241.426308,117.923532 245.9,119.36 C245.11,120.42 231.46,117.04 229.57,116.91 C226.576953,116.593991 223.557769,116.617473 220.57,116.98 C219.12,117.22 215.03,119.46 213.71,118.43 C214.426709,117.711761 215.191838,117.043526 216,116.43 C213.372482,116.035496 210.692389,116.174943 208.12,116.84 C203.59,117.95 204.42,118.49 206.98,121.67 C210.28,125.76 213.11,128.31 210.05,133.59 C208.91,135.59 206.97,136.59 205.19,137.86 C204.3,138.46 201.95,139.46 201.54,140.36 C201.21,141.08 201.8,143.58 201.83,144.36 C201.96,148.07 203.83,148.94 206.64,151.44 C208.13,152.78 209.51,154.27 211.04,155.55 C212.04,156.44 213.86,157.16 214.64,158.32 C216.43,161.02 214.52,160.46 212.64,159.32 C209.48,157.38 206.64,154.39 203.82,151.94 C201.38,149.8 199.96,147.08 196.6,148.81 C193.24,150.54 192.99,152.01 195.32,154.24 C196.98,155.82 206.61,162 206.27,163.73 C205.7,166.63 201.19,162.21 200.36,161.43 C198.36,159.57 196.27,157.29 193.77,156.09 C191.6,155.09 192.88,155.23 190.46,155.69 C188.04,156.15 185.61,156.93 183.15,156.92 C179.41,156.92 176.99,155.22 173.32,156.92 C167.385402,159.533131 161.1909,161.510813 154.84,162.82 C154.92,164 157.15,163.48 157.84,163.48 C158.31,164.42 156.25,164.82 155.72,165.17 C153.52,166.67 152.72,168.31 151.55,170.64 C150.023286,173.749108 148.687476,176.948371 147.55,180.22 C146.07,184.22 144.47,187.96 143.28,192.06 C141.81,197.06 140.51,200.06 143.15,204.71 C142.15,205.71 136.69,204.81 135.47,204.82 C133.77,204.82 131.74,205.35 130.14,204.82 C130.36,203.36 134.27,200.76 135.28,199.42 C136.879538,197.161842 138.177187,194.704377 139.14,192.11 C140.55,188.68 141.76,185.11 142.93,181.45 C144.16,177.62 146.08,173.19 146.62,169.18 C146.95,166.69 146.84,167.18 145.74,165.18 C145.14,164.1 143.34,164.71 144.84,163.42 C146.09,162.35 149.78,163.66 151.46,162.91 C150.08,162 147.93,162.54 146.39,162.14 C144.938019,161.695117 143.536952,161.09849 142.21,160.36 C139.06,158.73 136.83,156.36 134.39,153.79 C131.95,151.22 128.94,147.68 125.73,146.15 C122.52,144.62 119.02,145.66 116.73,141.29 C115.96,139.83 116.11,138.11 115.38,136.77 C114.77,135.63 112.93,134.21 111.97,133.25 C110.48,131.75 108.97,130.25 107.51,128.72 C106.39,127.52 103.93,123.42 102.51,123.14 C101.65,122.97 97.81,124.53 96.93,124.73 C94.93,125.19 92.93,125.73 90.93,126.22 C87.35,127.03 81.34,127.13 78.4,129.29 C79.09,129.41 82.25,129.97 82.51,130.69 C82.51,130.81 74.8,131.8 73.94,132.01 C70.88,132.77 67.84,133.57 64.79,134.35 C61.3,135.25 57.86,135.95 54.43,137.06 C51.98,137.86 47.09,139.62 44.68,139 C45.5,137.57 50.75,136.59 52.38,136 C54.01,135.41 55.86,134.87 57.66,134.32 C62.66,132.76 67.75,131.32 72.66,129.65 C72.15,128.81 70.23,129.15 70.18,128.12 C70.13,127.09 73.94,126.78 74.5,126.71 C77.28,126.33 80.02,125.87 82.81,125.36 C85.81,124.8 88.94,124.36 92.01,123.96 C94.45,123.61 99.77,123.79 101.86,122.58 C99.76,119.87 97.37,117.98 96.04,114.88 C94.92,112.27 92.96,110.67 91.2,108.34 C88.38,104.62 86.62,101.53 88.34,96.95 C90.06,92.37 93.01,89.66 96.59,86.32 C93.32,84.17 88.79,83.83 85.01,83.32 C84.12,83.19 82.53,82.53 81.65,82.84 C81.4,82.93 80.76,83.64 81.05,83.55 C80.49,83.72 82.39,84.78 78.89,84.21 C75.01,83.57 71.23,82.6 67.3,82.15 C63.81,81.76 59.52,81.88 56.22,80.74 C57.1,79.28 63.94,80.74 65.44,80.89 C68.3382031,80.9225079 71.2324867,81.1127895 74.11,81.46 C73.65,80.6 69.85,80.46 69.95,79.92 C70.3,77.97 81.86,80.57 83.16,80.85 C88.32,82 93.68,83 98.09,85.62 Z M177.83,100.5 C177.83,101.17 179.65,104.12 180.41,103.42 C179.66,102.42 175.52,96.08 174.48,96.76 C174.27,98 177,99.9 177.83,100.5 Z M183.35,98.21 C183.424523,97.8959732 183.356048,97.5650664 183.163017,97.3064052 C182.969986,97.0477439 182.67225,96.8879274 182.35,96.87 C183.18,98.08 185.54,102.27 186.85,101.69 C186.07,100.71 184.85,98 183.35,98.21 Z M170,84.94 C169.727349,84.4338838 169.250094,84.0695668 168.69,83.94 C171.2,86.17 173.19,90.94 176.42,92.45 C175.43,89.72 172.76,86.19 170,84.94 Z M157.8,108.81 C158.54,108.81 160.64,106.81 161.28,106.49 C162.79,105.75 164.38,105.39 165.86,104.58 C172.11,101.18 166.67,100.89 162.92,99.66 C160.36,98.82 155.37,98.42 154.22,95.53 C153.68,94.19 154.77,92.31 154.22,91.17 C153.588264,90.5318907 152.891086,89.9620819 152.14,89.47 C150.55,88.07 149.28,86.47 147.78,84.95 C144.78,82.01 141.57,79.14 138.34,76.5 C136.89,75.31 130.34,71.38 134.1,75.18 C136.79,77.89 140.44,79.94 143.37,82.43 C145.61,84.35 150.9,87.93 150.9,91.03 C149.24,90.48 148.81,88.69 147.64,87.34 C145.71809,85.2165304 143.638868,83.2409349 141.42,81.43 C139.95,80.17 131.42,72.43 129.69,74.89 C132.31,76.59 149.69,90.52 147.69,92.45 C146.94,93.2 138.52,84.35 136.9,83.04 C135.28,81.73 127.34,74.29 126.44,76.51 C130.177277,78.9581808 133.687947,81.7359279 136.93,84.81 C140.07,87.7 144.24,90.87 146.59,94.42 C145.05,94.97 140.42,89.01 139.26,87.93 C136.66,85.54 134.07,83.23 131.37,80.93 C130.59,80.26 125.17,75.2 124.02,77.39 C123.77,77.88 131.74,84.64 132.52,85.39 C134.75,87.53 140.41,90.48 141.35,93.39 C142.67,97.54 136.93,91.81 135.76,90.81 C132.53,88.07 123.51,77 119.18,79.81 C123.18,81.81 126.54,84.98 129.97,87.89 C132.18,89.76 138.7,93.24 138.97,96.21 C136.54,95.66 117.85,76.65 116.09,81.33 C121.69,84.23 126.5,87.97 131.44,91.87 C132.39,92.62 137.38,95.69 137.21,97.08 C137.10342,97.6539819 136.732165,98.1439809 136.208439,98.4019062 C135.684713,98.6598315 135.069969,98.6554182 134.55,98.39 C134.3,98.27 132.55,95.46 131.99,94.97 C129.39902,92.7197202 126.66314,90.6419212 123.8,88.75 C121.69,87.36 114.15,80.22 112,83.81 C116.61,85.25 120.63,88.04 124.39,91.02 C126.58,92.76 133.8,96.67 134.23,99.42 C132,99.11 129.6,95.99 127.78,94.58 C125.96,93.17 123.97,91.58 122.04,90.08 C118.9,87.66 113.25,83.17 109.27,85.84 C110.89,87.11 114.2,87.59 116.19,88.69 C119.01,90.26 121.63,92 124.29,93.83 C126.56,95.4 130.64,97.3 132.29,99.54 C133.67,101.39 133.68,102.64 131.29,102.28 C130.53,102.17 127.86,98.83 126.75,98.02 C124.69,96.51 122.4,95.09 120.27,93.67 C118.05,92.16 110,86 107.57,88.8 C112.8,91.03 118.18,93.42 122.85,96.71 C124.15,97.62 132.56,104.35 130.85,105.54 C133.48,108.26 136.45,110.05 138.85,112.87 C140.53,114.8 142.05,116.87 143.74,118.8 C143.9,118.98 148.1,123.8 147.97,121.61 C147.78,118.3 134.7,110.13 138.08,107.61 C139.67,106.42 145.2,113.94 146.33,115.34 C146.84,115.97 151.58,122.28 151.46,119.34 C151.4,117.8 146.12,112.88 145.26,111.99 C144.4,111.1 138.81,105.62 139.33,104.81 C142.33,105.18 145.33,110.27 147.33,112.37 C147.94,113.02 153.17,119.88 153.66,117.31 C154.05,115.25 148.41,111 147.17,109.56 C146.36,108.62 141.92,104.93 142.27,104.13 C143.64,101 155.53,116.75 156.85,115.24 C158.17,113.73 145.65,103.65 146.24,102.9 C147.18,101.72 153.24,109.11 153.7,109.59 C154.45,110.46 156.76,114.01 157.7,114.17 C160.48,114.63 156.07,110.42 155.7,109.99 C154.54,108.78 153.7,107.99 152.7,106.7 C151.91,105.8 148.88,103.36 148.61,102.22 C148.24,100.58 149.02,101.48 150.14,101.85 C152.14,102.51 154.97,106.7 156.66,108.2 C157.24,107.69 157.05,106.67 158.13,106.84 C158.13,108.65 157.74,110.08 160.52,111.84 C163.02,113.42 159.4,109.75 159.81,109.03 C160.05,108.59 163.06,111.61 164.12,111.5 C163.03,110.07 161.46,108.86 160.77,107.17 C160.15,108.11 159,110.07 157.8,108.81 Z M148.49,140.54 C150.7,141.85 152.27,143.77 154.82,144.59 C157.058081,145.201646 159.34232,145.629731 161.65,145.87 C164.76356,146.412992 167.961637,146.207328 170.98,145.27 C174.25,144.18 175.98,141.12 178.61,138.95 C180.505032,137.421248 182.556443,136.097216 184.73,135 C186.05,134.3 187.36,133.66 188.73,133.09 C190.1,132.52 192.87,132.33 193.88,131.53 C197.82,128.42 195.97,118.98 194.67,114.78 C193.816623,112.169769 192.495067,109.73675 190.77,107.6 C190.038732,106.439921 189.138874,105.395141 188.1,104.5 C186.3,103.4 185.26,104.25 183.15,104.82 C176.474524,106.697692 170.053581,109.384279 164.03,112.82 C157.141931,116.371534 150.81137,120.913097 145.24,126.3 C143.24,128.3 139.59,130.25 142.12,132.87 C142.61,133.38 147.75,136.31 145.47,137.45 C143.8,135.64 142.56,133.52 140.31,131.99 C138.794899,134.0576 137.856224,136.490563 137.59,139.04 C137.3,142.57 137.72,143.61 140.15,146.04 C143.23,149.15 145.75,151.43 150.24,151.28 C153.87,151.16 172.63,151.07 172.1,146.05 C166.93,147.44 150.43,147.59 148.49,140.54 Z M121.39,131.08 C115.5,125.87 110.78,119.61 105.33,114 C100.57,109.1 92.33,101.72 96.8,94.5 C99.68,89.83 106,86.03 110.33,83.22 C116.59,79.16 123.33,76.03 129.95,72.45 C126.77,68.34 117.83,74.68 114.09,77.02 C111.8,78.46 109.34,79.68 107.09,81.16 C105.71,82.05 99.09,85.98 100.6,87.39 C96.69,87.05 91.99,92.76 90.6,96.18 C87.95,102.61 93.87,107.75 97.68,112.18 C101.68,116.77 105.97,121.12 109.85,125.76 C111.733879,127.964442 113.736868,130.064242 115.85,132.05 C118.61,134.7 118.22,132.52 121.39,131.08 Z M163.05,88.55 C161.31,88.41 159.62,89.99 158.44,91.14 C157,92.53 155.03,93.69 155.62,95.35 C156.57,98 165.99,99.92 168.36,100.05 C167.67,99.15 163.47,95.55 163.36,94.87 C163.19,92.97 166.42,96.75 166.56,96.87 C167.56,98.04 174.82,105.72 175.67,105.06 C173.52,101.17 168.75,98.78 166.76,94.86 C164.58,90.55 171.1,98 172.28,98.36 C174.92,95.03 169.44,94.54 168.71,92.02 C168.33,90.71 173.13,95.36 173.62,95.7 C173.97,95.28 169.88,91.13 169.62,90.57 C171.24,89.57 173.24,93.72 174.25,93.92 C177.07,94.48 174.57,91.92 173.59,90.68 C172.61,89.44 164.45,80 163.26,81 C163.97,81.81 165.81,83.27 165.84,84.44 C164.09,84.02 162.74,81.55 161.63,80.35 C159.74,78.35 157.63,75.62 155.16,74.44 C154.61,75.58 158.95,79.31 159.89,80.3 C160.49,80.93 163.42,83.12 163.02,84.12 C162.34,85.84 160.29,82.7 159.79,82.2 C157.63,80 148.79,68.99 145.9,70.3 C147.16,71.85 160.85,84.9 160.27,85.24 C159.38,85.78 153.59,78.8 153.1,78.24 C151.78,76.62 146.17,69.69 143.95,70.77 C148.59,75.61 154.2,79.7 158.09,85.29 C155.29,85.29 151.22,80.41 149.24,78.41 C146.87,76 144,71 140.08,71 C142.47,74.26 146.61,77.41 149.55,80.21 C151.25,81.83 155.71,88.53 157.79,88.14 C157.56,88.87 153.79,92.59 155.37,93.42 C158.51,90.94 159.31,86.89 164.29,86.8 C165.86,86.8 167.38,86.96 167.04,88.46 C166.56,90.58 165.2,88.32 164.32,89.06 C163.82,89.48 165.75,89.85 165.83,89.87 C165.12,92.69 162.93,90.25 163.05,88.55 Z M129.6,145 C133.669023,149.68568 138.304539,153.847568 143.4,157.39 C148.13,160.63 152.67,160.48 158.22,159.72 C162.38,159.15 166,157.58 169.92,156.09 C172.32,155.17 182.63,151.95 179.03,149.09 C176.41,147.01 167.91,152.96 164.96,154.16 C160.82,155.86 155.79,157.71 151.26,156.56 C146.48,155.34 142.57,150.44 138.86,147.3 C137.11,145.81 135.81,144.63 134.22,143.15 C131.74,140.84 131.58,141.58 128.94,143.86 C129.15,144.23 130.78,143.57 131.05,143.5 C130.58,144 130.1,144.5 129.6,145 Z M188.24,137.67 C187.73,139.15 185.55,140.67 185.35,142.18 C185,144.66 186.25,142.67 187.35,144.59 C188.2,146.03 185.54,149.16 185.03,150.67 C184.12,153.36 184.39,152.95 186.18,153.37 C189.18,154.08 190.11,152.24 190.89,150.37 C191.36,149.27 195.33,142.97 194.38,141.83 C193.43,140.69 192.24,144.25 191.55,141.38 C191.06,139.38 194.19,137.47 193.86,135.87 C193.44,133.82 188.4,136.16 187.04,137.05 L188.24,137.67 Z M162.05,76.88 C164.15,74.76 154.47,68.88 153.05,67.81 C146.85,63.05 138.54,66.45 131.88,68.74 C130.21,69.32 128.43,69.52 129.53,71.33 C130.63,73.14 131.95,71.61 133.53,71.03 C135.61,70.27 138.53,69.37 141.01,68.68 C144.101462,67.6641424 147.465953,67.8827088 150.4,69.29 C152.8,70.56 156.75,75.29 159.4,74.19 C158.75,75.56 160.91,76.17 162.05,76.88 Z M202,121.59 C202.34,124.29 205.06,125.93 204.48,129.04 C203.9,132.15 200.55,133.24 198.4,135.09 C200.76,137.62 200.52,138.32 203.53,136.25 C205.343363,135.206447 206.901173,133.771621 208.09,132.05 C211.14,126.97 204.17,121.33 200.82,117.86 C200.55,119 199.73,122.07 202,121.59 Z M105.73,91.37 C105.73,91.13 114.16,96.99 114.98,97.66 C118.32,100.41 121.59,103.27 124.78,106.18 C128.13,109.18 131.39,112.18 134.53,115.47 C136.66,117.7 143.38,123.1 143.08,126.32 C146.16,125.47 142.92,123.16 141.98,121.94 C140.57,120.11 139.27,118.38 137.72,116.66 C134.49,113.07 130.72,110.14 127.44,106.66 C122.32,101.2 113.86,91.37 105.73,91.37 Z M175.07,146.55 C175.17,146.64 178.71,146.55 179.28,146.79 C181.17,147.55 182.14,150.24 183.67,150.48 C182.67,151.16 182.98,152.22 182.47,153.14 C183.85,153.67 186.88,146.88 186.64,145.69 C186.34,144.25 184.5,144.87 184.12,143.69 C183.46,141.69 186.81,140.12 186.88,138.4 C183.34,136.71 175.51,143 175.07,146.55 Z M137.66,71.81 C137.184502,71.9574309 136.745095,72.2026812 136.37,72.53 C136.37,73.26 140.53,76.14 141.27,76.78 C143.14,78.41 144.98,79.91 146.69,81.72 C148.4,83.53 150.22,85.56 151.97,87.5 C152.51,88.1 156.1,92.5 155.97,88.78 C155.97,88.18 153.97,86.28 153.43,85.56 C152.088425,83.8002375 150.599736,82.1576615 148.98,80.65 C145.4,77.36 142.12,73.57 137.66,71.81 Z M118.19,140.45 C118.96,140.54 119.5,141.69 120.19,142.11 C121.27011,142.78735 122.485054,143.220771 123.75,143.38 C123.86,143.38 125.33,143.21 125.45,143.19 C127.45,142.83 127.85,142.79 128.54,140.98 C131.3,133.8 116.66,131.57 118.19,140.45 Z M192.47,141.37 C193.84,141.53 195.08,139.91 195.56,141.83 C195.98,143.52 193.25,146.33 193.2,148.29 C194.75,147.13 198.52,146.63 199.52,145.29 C200.75,143.65 199.2,141.11 198.52,139.73 C198.07,138.85 196.58,135.29 195.17,135.51 C193.76,135.73 192.24,140.34 192.47,141.37 Z M162.63,107 C163.1,107.49 166.18,111.48 166.83,109.83 C167.36,108.49 165,108.12 165.3,106.83 C166.4,107.12 167.3,109.51 168.44,108.76 C170.27,107.57 167.25,107.37 167.36,106.15 C167.64,103.15 172.01,109.65 174.1,105.72 C173.542217,104.758934 172.801612,103.91641 171.92,103.24 C169.92,101.98 171.37,102.1 169.1,103.3 C166.83,104.5 165.06,106 162.63,107 Z M197.55,132.44 C202.66,130.32 202.55,127.09 199.09,123.13 C198.39,123.76 197.47,131.09 197.55,132.41 L197.55,132.44 Z M183.75,102.74 C182.88,101.6 176.75,93 175.89,94.84 C175.38,95.94 178.33,98.22 179.05,99.08 C180.54,100.82 181.29,103.55 183.75,102.71 L183.75,102.74 Z M174.1,97.74 C172.76,99.45 173.46,99.67 174.69,101.37 C175.33,102.27 176.59,104.98 178.04,104.51 C180.62,103.65 175,98.64 174.1,97.72 L174.1,97.74 Z M159.84,153.25 C158.02,152.55 150.71,152.83 149.42,153.69 C152,155.93 157.19,154.68 159.84,153.23 L159.84,153.25 Z M99.79,95 C97.95,94 96.92,100.66 98.4,102 C98.87,99.67 99.71,97.39 99.79,95 Z M171.24,83.43 C169.249074,80.5217636 166.600838,78.1236192 163.51,76.43 C162.83,78 170.4,84 171.24,83.42 L171.24,83.43 Z M190.71,103.23 C190.71,100.81 188.43,96.91 185.59,98.04 C186.52,99.04 187.47,99.42 188.43,100.37 C189.39,101.32 189.44,102.78 190.71,103.22 L190.71,103.23 Z M128.66,131.49 C129.32,132.49 131.02,133.27 131.89,134.29 C134.74,132.43 130.25,129.25 128.66,131.48 L128.66,131.49 Z M177.21,93.36 C176.92,94.59 182.44,100.41 183.82,101.1 C183.39,99.47 179.13,93.28 177.21,93.35 L177.21,93.36 Z M130.86,138.48 C131.5,136 129.39,132.74 126.49,133.39 C127.699546,134.29972 128.821122,135.320857 129.84,136.44 C130.21,136.94 130.53,138.24 130.86,138.47 L130.86,138.48 Z M121.09,96.8 C122.8,98.18 124.46,99.6 126.09,101.03 C126.3,101.21 128.88,103.58 128.76,102.88 C128.44,100.93 122.86,97.45 121.09,96.79 L121.09,96.8 Z" id="Shape"></path>
            <path d="M129.51,49.49 C128.51,49.9 121.57,53.01 120.43,52.35 C119.29,51.69 120.53,49.25 120.59,47.89 C120.722895,45.0277613 120.105863,42.1804499 118.8,39.63 C117.8,37.96 118.18,38.09 116.61,37.87 C115.04,37.65 112.73,38.93 111.22,39.44 C108.65,40.33 104.89,40.72 103.91,43.36 C103.09,45.57 104.34,50.06 105.31,52.13 C106.85,55.42 110.49,55.21 106.01,57.59 C105.150804,58.1427689 104.255456,58.6372147 103.33,59.07 C101.48,59.73 101.92,60.73 100.86,58.46 C99.48,55.46 99.86,51.08 99.46,47.83 C99.06,43.95 98.52,39.96 98.38,36.05 C98.0773946,30.3537414 98.4940117,24.6420553 99.62,19.05 C100.49,15.2 102.62,10.1 105.83,7.57 C107.575201,6.13128919 109.586877,5.05069264 111.75,4.39 C115.02,3.73 114.75,6.39 115.67,9.28 C117.67,15.79 119.56,22.28 121.45,28.77 C122.56,32.61 123.45,36.52 124.62,40.33 C125.039376,42.0617696 125.656776,43.7394867 126.46,45.33 C127.43,47.06 128.78,47.78 129.51,49.49 Z M104.4,37.17 C107.84,35.96 111.29,35.02 114.77,33.93 C117.86,32.93 117.56,32.3 116.66,29.16 C114.83,22.82 113.35,16.38 111.33,10.08 C108.25,12.95 106.33,16.99 104.99,20.89 C104.13,23.35 101.81,35.7 104.4,37.17 Z" id="Shape"></path>
            <path d="M224,91.43 C222.8,91.86 221,89.1 220.27,87.91 C218.88,85.73 218.67,87.14 220.57,85.24 C223.428494,82.3300077 226.675967,79.8296214 230.22,77.81 C227.91,75.01 225.83,72.08 223.67,69.17 C222.42,67.47 222.42,66.97 220.62,67.01 C219.17,67.01 216.29,69.41 215.13,70.38 C214.21,71.15 211.25,76.62 210.72,76.64 C209.56,76.64 209.31,75.34 208.72,74.7 C206.66,72.5 206.34,72.59 207.88,70.54 C211.09,66.27 217.61,63.15 222.19,60.54 C227.58,57.54 232.33,54.79 238.53,53.84 C244.04,53 248.44,52.73 252.9,56.03 C254.52,57.22 258.4,59.63 258.38,61.93 C258.38,63.85 255.38,65.29 253.84,66.53 C248.38,70.87 242.67,74.79 237.17,79.09 C234.5,81.23 223.34,87.17 224,91.43 Z M225.68,64.08 C227.51,66.7 229.46,69.17 231.46,71.67 C232.92,73.5 232.99,74.55 234.99,74.22 C236.79,73.92 239.86,70.69 241.36,69.56 C244.2,67.4 246.88,65.05 249.7,62.85 C255.59,58.25 243.02,58.33 240.19,58.85 C235.097386,59.7553622 230.196886,61.5241419 225.7,64.08 L225.68,64.08 Z" id="Shape"></path>
            <path d="M165.47,51.15 C164.36,51.44 157.05,50.88 156.47,49.72 C156.02,48.86 157.32,48.93 157.18,48.25 C156.967159,47.5170705 156.682444,46.8069565 156.33,46.13 C155.300007,43.9299146 154.117109,41.8047095 152.79,39.77 C148.67,32.7 145.33,25.15 141,18.2 C139.74,19.49 140.42,24.2 140.35,25.91 C140.200188,28.9550372 140.280416,32.0070389 140.59,35.04 C140.92,38.15 140.84,42.33 142.24,45.13 C143.24,47.07 145.97,47.88 143.39,49.21 C142.39,49.74 135.92,49.78 135.18,48.68 C134.56,47.76 135.94,42.56 135.99,41.29 C136.19,36.57 135.59,31.79 135.58,27.05 C135.58,20.17 136.36,13.14 135.89,6.29 C135.89,5.56 134.28,0.74 134.43,0.54 C134.8,0.04 140.5,-0.21 141.23,0.22 C143.23,1.37 141.02,2.89 140.76,5.22 C140.62,6.45 139.7,11.86 141.1,12.52 C144.71,14.23 149.73,5.2 150.99,2.77 C148.64,2.03 150.99,1.43 151.88,1.19 C152.77,0.95 156.44,0.73 157.4,1.19 C155.72,5.29 151.18,10.32 147.79,13.19 C145.3,15.27 145.1,15.19 146.72,18.35 C148.14,21.11 150.03,23.51 151.37,26.35 C153.75,31.27 156.27,36.12 158.69,41.02 C159.56868,43.0388933 160.587846,44.9936874 161.74,46.87 C162.24,47.39 165.55,51 165.47,51.15 Z" id="Shape"></path>
            <path d="M199.11,163.82 C199.7,165.17 196.74,166.06 195.72,167.29 C194.06,169.29 193.58,171.74 192.8,174.1 C191.64,177.63 190.01,181.01 188.7,184.5 C187.32,188.19 185.79,191.84 184.63,195.59 C184.14,197.18 182.16,206.34 180.63,206.59 C178.78,204.53 175.15,175.96 174.83,176.07 C173.13,176.69 171.27,184.23 170.66,185.65 C169.4,188.59 167.94,191.58 166.87,194.65 C166.334506,196.102153 165.955689,197.607362 165.74,199.14 C165.537211,200.37731 165.56093,201.64117 165.81,202.87 C166.04,203.44 167.5,204.65 167.48,204.94 C167.39,205.83 160.29,205.8 158.39,205.8 C159.1,203.39 160.91,200.98 161.93,198.54 C162.95,196.1 163.68,193.46 164.54,190.86 C166.99,183.49 171.21,176.44 171.93,168.62 C171.801159,167.208545 171.570559,165.808237 171.24,164.43 C171.77,163.23 174.8,163.69 175.73,163.76 C176.46,163.71 177.18,163.69 177.91,163.69 C178.79,163.98 178.91,164.47 178.24,165.17 C178.665198,166.872902 178.90988,168.615847 178.97,170.37 C179.7,177.08 180.3,183.8 181.2,190.49 C183.73,188.23 184.2,182.49 185.31,179.43 C186.57,176.09 189.83,170.21 188.57,166.49 C188.23,165.49 186.28,164.73 186.45,163.99 C186.54,163.61 189.51,163.69 189.75,163.67 C192.867378,163.41318 196.002452,163.463422 199.11,163.82 Z" id="Shape"></path>
            <path d="M51.71,37.38 C53.98,33.92 58.1,31.24 61.15,28.63 C62.59,27.39 66.21,22.39 68.07,22.3 C70.18,22.19 72.16,26.56 73.27,28.3 C71.71,29.24 71.27,27.99 69.75,28.3 C68.23,28.61 66.18,30.93 65.12,31.92 C64.06,32.91 61.31,34.62 60.6,36 C59.68,37.81 60.09,37.76 61.6,39.61 C63.75,37.77 66.06,36.15 68.1,34.16 C69.23,33.05 69.76,31.83 71.33,32.11 C71.65,32.17 73.78,33.8 73.73,34.43 C73.63,35.87 68.15,39.7 66.88,40.87 C64.37,43.15 64.27,42.61 65.97,45.27 C67.02,46.92 67.84,48.69 68.97,50.33 C71.32,53.88 73.97,57.19 76.56,60.57 C77.5963094,62.1512334 78.7459951,63.6551827 80,65.07 C82,66.97 81.9,66.48 84.32,64.88 C86.32,63.57 89.73,61.69 90.84,59.44 C91.73,57.65 89.84,55.05 92.22,55.08 C92.93,55.08 97.01,59.9 96.75,60.86 C96.41,62.12 92.19,64.22 91.14,65.03 C88.52,67.03 85.8,69.03 83.23,71.14 C82.7,71.58 80.63,74.14 80.13,74.14 C78.77,74.24 78.79,73.39 77.86,72.14 C73.06,65.63 67.86,59.25 63.32,52.56 C61.22,49.46 58.96,46.71 56.63,43.8 C55,41.77 54,38.63 51.71,37.38 Z" id="Shape"></path>
            <path d="M68.34,88.37 C67.92,91.81 63.87,94.04 63.7,97.79 C61.61,97.74 59.27,94.32 57.85,93 C55.11,90.46 52.35,88 49.47,85.62 C43.82,81 38.21,76.22 32.16,72.07 C30.73,71.07 26.16,69 25.81,67.26 C25.46,65.35 28.92,62.26 29.93,60.76 C31.77,58.1 37.48,46.76 41.59,47.76 C45.01,48.54 48.14,61.97 48.73,64.76 C49.4949831,68.0580018 50.0725746,71.3966807 50.46,74.76 C51.06,80.76 49.07,77.76 46.04,75.33 C45.17,74.64 43.23,73.94 43.4,72.6 C43.4,72.41 45.45,71.39 45.67,70.35 C46.24,67.65 43.39,62.14 42.47,59.59 C41.03,55.59 40.09,55.7 37.66,59.04 C36.53,60.59 33.55,63.68 33.77,65.63 C34.1,68.63 39.77,71.83 41.93,73.63 C44.72,75.98 47.22,78.63 50.14,80.77 C52.57,82.6 55.14,84.63 57.65,86.23 C59.5466379,87.5548868 61.7167698,88.4366097 64,88.81 C65.43,88.93 67.12,87.93 68.34,88.37 Z" id="Shape"></path>
            <path d="M225.16,25.12 C223.54,25.44 222.08,31.17 219.98,31.03 C219.54,30.24 220.59,28.77 220.19,27.66 C219.782395,26.8889109 219.19179,26.2296311 218.47,25.74 C217.28,24.74 210.71,20.74 209.32,20.93 C208.91,21 206.96,22.6 207.11,23.6 C207.26,24.6 209.83,25.67 210.76,26.15 C212.62,27.15 218.29,28.68 217.49,30.67 C215.98,34.42 210.7,30.67 208.62,29.57 C206.97,28.73 206.25,27.88 204.81,28.87 C203.37,29.86 201.86,33.7 200.98,35.24 C198.82,39.03 196.89,42.94 195.03,46.88 C194.11,48.82 192.98,50.68 192.03,52.61 C190.9,54.99 191.03,54.15 192.12,55.68 C193.21,57.21 195.28,58.15 196.78,59.09 C197.840001,59.8128057 198.957014,60.4482323 200.12,60.99 C200.900057,61.4653312 201.75576,61.8035538 202.65,61.99 C203.08,61.99 204.49,61.23 204.76,61.38 C206.23,62.22 206.57,60.77 205.4,63.71 C205.04,64.62 204.32,67.15 203.61,67.71 C202,69.07 200.23,66.77 198.3,65.58 C195.21,63.68 191.9,62.22 188.81,60.33 C187.64,59.62 185.87,58.81 184.81,58.01 C183.08,56.68 183.31,58.23 183.67,56.19 C184.17,53.35 187.67,49.65 189.03,47.19 C191.15,43.26 193.23,39.28 195.22,35.28 C197.03,31.66 199.1,28.18 200.94,24.57 C201.69,23.09 202.41,21.57 203.15,20.11 C203.66,19.11 204.59,15.4 205.46,14.95 C206.73,14.3 212.72,18.41 214.46,19.24 C216,19.92 225.12,23.81 225.16,25.12 Z" id="Shape"></path>
            <path d="M109.23,162.39 C111.41,162.21 118.17,160.97 118.23,163.17 C118.23,164.25 115.43,167.17 114.85,168.27 C113.905343,170.265051 113.109831,172.327366 112.47,174.44 C111.110724,178.156699 110.021232,181.966579 109.21,185.84 C108.97,187.06 107.05,194.49 108.12,195.43 C110.04,194.29 112.12,190.51 114.2,189.99 C116.12,189.52 116.33,193.13 117.98,194.86 C120.65,188.66 123.67,182.81 126.76,176.86 C127.97,174.51 129.35,172.18 130.36,169.75 C130.72,168.88 131.69,167.11 131.57,166.11 C131.144787,165.101203 130.582855,164.155678 129.9,163.3 C130.24,162.09 139.71,162.11 140.44,163 C137.58,163.89 134.33,169.93 132.9,172.4 C130.58,176.4 128.59,180.71 126.57,184.88 C124.81,188.51 123.1,192.17 121.57,195.88 C121,197.24 119.2,204.41 117.57,204.94 C116.57,205.28 115,201.2 114.73,200.65 C114.35,199.92 113.8,198.04 113.25,197.65 C111.77,196.58 115.25,196.65 111.7,197.78 C109.97,198.32 107.76,200.65 106.43,201.86 C105.19423,202.884611 103.902219,203.83943 102.56,204.72 C101.48,203.42 103.72,195.53 104.1,193.77 C104.95,189.95 105.67,186.11 106.51,182.28 C107.27,178.84 107.68,175.38 108.31,171.92 C108.748616,170.019772 109.082453,168.096872 109.31,166.16 C109.29,165.53 108.8,162.74 109.23,162.39 Z" id="Shape"></path>
            <path d="M44.57,163.06 C43.45,164.65 38.57,164.06 36.83,164.21 C34.58,164.44 32.35,164.88 30.12,165.05 C24.17,165.5 18.05,164.78 12.12,165.55 C8.39,166.03 8.6,166.92 11.3,168.41 C13.8040527,169.786491 16.458174,170.870285 19.21,171.64 C23.86,172.97 28.13,173.26 32.86,173.7 C31.21,175.48 26.78,174.92 24.45,175.02 C21.5,175.14 18.54,175.36 15.58,175.36 C16.4,177.27 21.48,179.26 23.33,180.13 C25.8068647,181.167233 28.3409987,182.062026 30.92,182.81 C36.0230458,184.438926 41.3187866,185.387116 46.67,185.63 C45.37,187.09 39.61,186.45 37.74,186.57 C34.8128939,186.617776 31.8911538,186.838159 28.99,187.23 C31.32,191.67 39.99,192.45 44.23,192.8 C46,193 57,193.64 57,194.36 C53.71,195.29 50.19,195.74 46.83,196.36 C45.15,196.66 40.09,196.36 41.1,198.74 C42.1,200.96 49.48,201.93 51.45,202.33 C55.2757461,203.021332 59.1754506,203.209594 63.05,202.89 C62.72,203.37 62.17,202.99 61.91,203.4 C61.75,204.03 62.1,204.23 62.91,204 C57.75,206.16 48.62,203.68 43.55,202.11 C40.99,201.31 37.91,200.11 36.01,198.11 C33.66,195.62 35.87,195.74 38.66,194.69 C34.9,192.95 30.88,192.24 27.56,189.63 C23.61,186.52 24.76,185.68 28.97,184.28 C28.39,183.36 24.87,183.28 23.77,183 C21.1194461,182.330327 18.560529,181.33967 16.15,180.05 C14.91,179.37 10.69,177.32 10.47,175.9 C10.19,174.02 12.62,174.28 12.91,172.98 C10.91,172.07 -2.21,166.38 1.72,163.77 C2.8306111,163.808141 3.94250168,163.781429 5.05,163.69 C6.18,163.58 7.46,163.69 8.62,163.69 C11.46,163.49 14.25,163.11 17.1,162.97 C21.82,162.74 26.59,162.44 31.29,162.64 C33.86,162.74 36.49,162.64 39,162.71 C40.39,162.7 43.38,162.37 44.57,163.06 Z" id="Shape"></path>
            <path d="M276.45,178 C273.615809,180.645121 270.289458,182.707526 266.66,184.07 C264.95,184.66 258.66,185.07 257.85,186.38 C258.93,186.89 261.75,186.8 262.12,188.31 C262.49,189.82 259.55,191.58 258.7,192.19 C256.45,193.81 249.51,194.73 248.31,196.85 C252.64,198 253.13,198.78 249.54,201.11 C247.061003,202.826016 244.288557,204.073278 241.36,204.79 C236.58,205.88 228.76,208 224.14,206.05 C225.84,205.67 224.78,205.38 223.87,205.19 C225.11,204.56 227.53,204.97 228.97,204.92 C231.168924,204.92769 233.364196,204.740289 235.53,204.36 C237.97,203.85 244.36,203.11 245.7,200.82 C247.04,198.53 241.38,198.5 239.49,198.19 C238.19,197.98 230.33,197.43 229.93,196.19 C234.47,196.57 239.73,195.19 244.36,194.87 C247.13,194.71 257.11,192.74 257.75,189.3 C252.1,188.04 245.85,189.46 240.23,187.78 C242.07,188.16 246.38,187.1 248.23,186.78 C250.933796,186.349089 253.594167,185.679813 256.18,184.78 C259.021673,183.898819 261.804028,182.836647 264.51,181.6 C266.05,180.8 270.51,179.12 271.23,177.6 C267.06,176.06 257.23,179.23 254.11,175.84 C259.429824,175.964799 264.725533,175.086139 269.72,173.25 C270.79,172.85 276.94,170.81 277.48,169.66 C278.48,167.57 274.61,167.53 273.04,167.46 C267.54,167.23 261.98,167.55 256.48,167.12 C253.88,166.92 251.27,166.39 248.65,166.19 C247.2,166.07 243.52,166.51 242.32,165.19 C243.57,164.43 245.87,164.89 247.32,164.87 C250.2,164.82 253.13,164.87 256.01,164.7 C260.01,164.5 264.01,164.94 268.01,165.06 C273.07,165.2 278.75,165.06 283.69,166.12 C284.77,166.36 286.22,165.44 286.09,167.41 C286.02,168.41 284.03,169.41 283.29,169.97 C280.391096,171.988666 277.274958,173.675875 274,175 C274.14,176.09 276,176.48 276.45,178 Z" id="Shape"></path>
            <path d="M17.68,82.87 C18.91,82.17 25.38,87.33 24.47,89.16 C20.33,85.61 19.12,92.49 21.47,95.32 C23.47,97.69 24.76,97.55 27.38,97.22 C32.82,96.54 37.69,95.85 42.7,98.63 C48.8481146,101.864843 53.1745262,107.739034 54.44,114.57 C55.04,117.65 54.56,120.57 54.16,123.65 C53.66,127.48 53.32,127.24 50.66,125.11 C46.94,122.11 48.21,123.03 48.66,118.38 C48.8276764,114.917758 47.7451943,111.510601 45.61,108.78 C41.5,103.51 36.61,101.66 30.36,103.09 C27.05,103.85 25.28,105.31 21.84,103.95 C19.2533709,102.98827 17.2178225,100.941758 16.27,98.35 C15.1635167,95.9059973 14.6758287,93.2271475 14.85,90.55 C14.999711,88.9836754 15.3875057,87.4493574 16,86 C16.31,85.32 17.71,83.62 17.68,82.87 Z" id="Shape"></path>
            <path d="M208.34,204.81 C205.5,205.22 202.46,207 200.03,204.59 C198.38,202.96 198.33,200.18 198.03,198.01 C197.28,192.88 199.36,186.52 201.51,181.8 C203.99,176.31 207.51,170.03 212.01,165.95 C215.18,163.08 221.4,161.55 223.17,166.47 C223.76,168.11 224.36,171.97 222.68,172.91 C221,173.85 218.57,172.44 218.21,171.63 C218.21,171.63 219.02,170.38 218.94,169.91 C218.6,167.76 216.53,168.07 215.05,168.85 C212.62,170.11 211.35,173.4 210.05,175.64 C206.98,180.76 203.34,187.03 202.7,193.09 C201.97,200.09 208.46,203.2 212.24,195.98 C210.96,195.71 209.92,197.45 209.24,196.27 C208.4,194.87 210.4,193.69 211.13,193.27 C213.72,191.85 218.81,192.27 221.75,191.52 C221.31,195.24 218.01,198.75 218.16,202.52 C218.135411,203.285982 218.293069,204.046855 218.62,204.74 C218.95,205.18 220.81,205.82 220.81,206.14 C220.81,207.7 217.29,206.74 216.19,206.74 C214.94,206.74 211.29,207.95 211.97,206.25 C212.29,205.47 213.82,204.76 214.39,203.9 C215.310679,202.205458 216.012938,200.401089 216.48,198.53 C216.66,197.84 218.17,196.46 216.93,195.84 C215.43,195.09 214.52,197.84 214.12,198.54 C212.840516,201.145185 210.832697,203.323216 208.34,204.81 Z" id="Shape"></path>
            <path d="M98.35,162 L98.74,161 C101.01,161.54 95.08,169 94.84,168.78 C94.24,168.32 94.54,166.5 93.75,165.69 C92.36,164.26 90.53,164.81 88.9,165.46 C86.18,166.54 84.41,168.7 84.54,171.66 C84.82,178.2 91.84,180.84 90.54,188.06 C89.43,194.24 84.91,199.87 79.46,202.83 C75.88,204.76 67.26,207 64.07,204.25 C66.97,204.05 66.51,200.31 68.27,198.7 C70.2,196.94 68.27,198.54 70.14,199.35 C72.01,200.16 74.02,199.35 75.8,198.66 C82.1,196.16 85.96,190.03 84.35,183.2 C83.67,180.35 81.25,178.71 80.51,175.91 C79.4119129,172.221111 80.1159277,168.230458 82.41,165.14 C86.51,159.64 92.59,158.85 98.35,162 Z" id="Shape"></path>
            <path d="M232.69,94.39 C232.04,98.39 236.38,102.63 240.13,103.16 C246.83,104.16 251.41,97.6 254.21,92.71 C257.21,87.54 264.05,81.2 270.29,85.35 C272.517899,86.9486642 273.998347,89.3859864 274.39,92.1 C274.71,93.63 275.14,94.51 274.2,95.4 C273.82,95.75 268.96,96.53 268.69,95.92 C268.1,94.56 269.92,92.1 268.18,90.49 C266.44,88.88 263.18,90.4 261.74,91.58 C259.43,93.45 258.42,96.33 256.69,98.83 C255.01282,101.447456 252.655357,103.559494 249.87,104.94 C243.67,108.34 237.15,109.56 230.97,105.09 C229.2,103.81 224.88,99.09 225.69,96.83 C226.08,95.76 231.72,94 232.69,94.39 Z" id="Shape"></path>
            <path d="M277,104.93 C277.69,107.93 278.47,110.61 278.92,113.64 C277.92,114.26 276.86,112.98 276.29,112.45 C274.711537,114.310318 273.264696,116.278423 271.96,118.34 C274.074823,119.784849 276.367036,120.951122 278.78,121.81 C280.1,122.23 279.32,120.5 280.7,121.81 C281.09,122.2 281.19,124.29 281.28,124.81 C281.5,125.98 282.96,129.73 281.47,130.1 C281.3,130.1 275.28,125.61 274.58,125.25 C271.58,123.7 270.15,122.73 266.81,123.25 C264.41,123.61 262.06,124.08 259.67,124.39 C254.3,125.09 248.29,125.66 243.36,127.99 C240.04,129.56 239.36,131.66 238.5,126.99 C238.11,124.99 236.5,122.11 238.82,121.77 C238.37,121.84 241.21,122.69 241.02,122.65 C241.07,122.65 243.95,122.97 244.28,122.94 C246.82,122.71 249.6,121.57 252.07,120.94 C256.51,119.82 263.63,119.47 267.12,116.33 C269.124229,114.324645 270.96352,112.160969 272.62,109.86 C273.78,108.36 275.19,104.26 277,104.93 Z" id="Shape"></path>
            <path d="M75.27,106.19 C75.6,106.37 77.54,107.19 77.09,107.82 C76.64,108.45 68.2,106.02 67.24,105.82 C62.24,105.02 57.24,105.82 52.24,106 C52.83,104.31 59.03,104.26 60.54,104.22 C63.54,104.13 66.38,104.75 69.3,104.75 C68.9282074,104.603114 68.6593682,104.273692 68.59,103.88 C69.01,101.34 89.59,106.25 90.91,109.5 C88.92,110.35 76.31,104.29 75.27,106.19 Z" id="Shape"></path>
            <path d="M98.35,147.7 C97.46,149.01 94.35,149.42 92.93,149.98 C90.0639323,151.271535 87.3195863,152.81774 84.73,154.6 C82.46,156.02 80.08,157.26 77.82,158.71 C76.47,159.59 73.23,162.86 71.59,162.24 C73.31,160.13 77.09,158.45 79.33,157.03 C82.06,155.29 87.33,153.12 89.24,150.51 C88.403267,150.308303 87.523079,150.392801 86.74,150.75 C86.06,148.16 104.84,140.63 107.61,139.61 C108.32,139.35 111.23,137.71 111.42,138.99 C111.5,139.49 107.52,140.6 106.86,140.86 C104.92,141.65 95.54,145.22 95.42,147.48 C96.4,147.52 97.38,147.6 98.35,147.7 Z" id="Shape"></path>
            <path d="M150.64,52.51 C151.29,51.51 151.86,50.8 152.44,49.81 C153.83,51.6 152.64,56.1 152.55,58.23 C152.5,59.64 153.03,62.61 152.2,63.53 C151.06,63.14 151.03,58.99 150.62,57.9 C150.270156,57.8922948 149.942853,57.7257211 149.730723,57.4474212 C149.518592,57.1691213 149.444715,56.809377 149.53,56.47 L149.53,55.31 C149.3,54.31 149.32,53.1 149.16,52.09 C148.81,49.91 143.99,38.35 145.42,37.29 C147.93,42 148.85,47.5 150.64,52.51 Z" id="Shape"></path>
            <path d="M265.77,144.63 C265.94,148.63 258.77,148.9 259.11,144.41 C259.43,140.28 264.66,141.74 265.77,144.63 Z" id="Shape"></path>
            <path d="M179.17,24.21 C183.73,23.93 183.65,30.15 179.76,30.29 C176.15,30.42 175.78,23.8 179.17,24.21 Z" id="Shape"></path>
            <path d="M26.42,134.57 C30.42,134.51 29.19,141.57 25.09,140.09 C21.9,138.92 23.22,134.57 26.42,134.57 Z" id="Shape"></path>
            <path d="M192.35,122.79 C192.5,123.79 190.81,129.15 189.53,129.15 C189.84,126.15 190.3,125.83 186.95,126.66 C183.228651,127.497238 179.404056,127.780291 175.6,127.5 C172.43,127.35 169.02,127.5 165.9,126.9 C161.53,125.99 158.09,123.82 154.15,122.04 C153.68,123.04 153.97,124.04 154.04,125.22 C151.89,124.58 151.85,122.28 152.87,120.46 C153.61,119.12 158.45,116.36 156.48,119.25 C161.68,120.15 167.72,117.39 172.42,115.4 C175.306183,114.114468 178.096647,112.623993 180.77,110.94 C181.94,110.23 184.34,106.94 185.77,107.32 C188.28,107.96 181.5,112.62 180.69,113.1 C178.52,114.42 174.43,114.87 176.69,117.6 C178.55,119.87 179.79,118.87 181.99,118.53 C185.44,118.01 185.52,119.2 183.67,121.47 C186.42,122.6 189.42,122.71 192.35,122.79 Z M158.21,121.79 C163.72,126.27 173.14,124.79 178.03,120.12 C177.54,119.62 174.66,116.64 174.22,116.57 C173.22,116.41 169.05,118.91 168.04,119.22 C164.83,120.23 161.3,120.64 158.21,121.83 L158.21,121.79 Z M176,125.42 C176.52,127.08 190.18,125.28 189.93,123.83 C188.338264,123.905136 186.743029,123.81465 185.17,123.56 C184.37,123.36 183.04,122.32 182.29,122.28 C179.93,122.14 177.68,124.11 176,125.42 Z M171.68,125.14 C173.92,125.77 174.8,124.81 176.54,123.77 C178.9,122.35 181.54,121.5 183.8,120.01 C182.36,118.17 172.27,123.28 171.63,125.14 L171.68,125.14 Z" id="Shape"></path>
            <path d="M146.91,99.31 C145.1,99.48 145.32,101.7 143.21,101.45 C141.56,101.25 142.21,99.6 139.9,100.23 C136.97,101.02 136.15,107.69 133.38,107.23 C133.38,102.69 143.43,93.11 146.91,99.31 Z" id="Shape"></path>
            <path d="M151.73,98.46 C150.106672,97.5647731 148.402442,96.8248225 146.64,96.25 C148,95.45 151.73,96.47 151.73,98.46 Z" id="Shape"></path>
            <path d="M126.41,138.22 C125.97,141.56 121.01,141.79 121.02,138.46 C121.03,135.13 125.8,135.44 126.41,138.22 Z M123.48,139.71 C123.69,139.66 125.25,138.47 124.29,138.13 C123.820294,138.527728 123.528731,139.096456 123.48,139.71 Z" id="Shape"></path>
        </g>
    </g>
</svg>