<?xml version="1.0" encoding="UTF-8"?>
<svg width="284px" height="104px" viewBox="0 0 284 104" version="1.1" xmlns="http://www.w3.org/2000/svg" xmlns:xlink="http://www.w3.org/1999/xlink">
    <!-- Generator: Sketch 51.3 (57544) - http://www.bohemiancoding.com/sketch -->
    <title>logo-sophistique-strings</title>
    <desc>Created with Sketch.</desc>
    <defs>
        <polygon id="path-1" points="0.06 0.732238353 186.755 0.732238353 186.755 99.8236268 0.06 99.8236268"></polygon>
    </defs>
    <g id="Page-1" stroke="none" stroke-width="1" fill="none" fill-rule="evenodd">
        <g id="logo-sophistique-strings">
            <path d="M82.089,27.203 C81.972,26.677 81.504,26.15 80.685,26.15 C78.169,26.15 73.487,31.592 67.167,38.965 C65.821,40.545 65.47,41.54 65.47,42.418 C65.47,43.237 66.055,44.173 67.636,44.173 C71.615,44.173 77.174,39.726 81.153,34.225 C80.685,33.406 80.451,32.353 80.451,31.182 C80.451,29.661 81.211,27.964 82.089,27.203 Z M89.345,33.932 C88.292,34.81 86.536,35.981 84.781,35.981 C83.377,35.981 82.557,35.512 81.738,34.81 C76.179,41.716 71.439,44.875 66.992,44.875 C65.236,44.875 63.364,43.471 63.364,41.306 C63.364,35.63 74.189,25.448 80.334,25.448 C81.504,25.448 82.44,25.916 82.791,26.735 C83.026,26.559 83.26,26.501 83.493,26.501 C84.313,26.501 84.664,27.32 84.664,28.257 C84.664,30.246 83.201,33.055 82.089,34.225 C82.909,34.927 83.844,35.279 84.781,35.279 C85.834,35.279 87.707,34.576 88.994,33.406 L89.345,33.932 Z" id="Fill-1" fill="#FFFFFF"></path>
            <path d="M98.008,26.501 L102.104,26.501 L97.188,31.885 L97.305,32.002 C99.412,30.246 104.562,26.15 107.254,26.15 C109.126,26.15 110.413,27.496 110.413,29.544 C110.413,34.342 100.582,41.365 100.582,43.354 C100.582,43.822 100.933,44.173 101.519,44.173 C103.45,44.173 107.312,41.189 115.329,33.932 L115.329,34.752 C109.068,40.604 103.976,44.875 101.519,44.875 C100.173,44.875 99.178,44.056 99.178,42.183 C99.178,37.795 109.009,30.714 109.009,28.49 C109.009,27.554 108.307,26.852 107.137,26.852 C104.62,26.852 97.072,32.996 95.316,34.459 C91.922,37.326 80.219,50.259 72.962,59.036 L69.217,59.036 L98.008,26.501" id="Fill-2" fill="#FFFFFF"></path>
            <path d="M129.609,24.687 C136.163,21.936 153.601,11.696 153.601,5.551 C153.601,4.381 153.25,3.679 151.963,3.679 C148.685,3.679 139.674,13.51 129.55,24.57 L129.609,24.687 Z M122.704,28.549 C139.381,10.526 148.1,2.977 152.314,2.977 C153.484,2.977 154.303,4.03 154.303,5.376 C154.303,11.404 140.083,20.883 128.263,25.857 L122.821,32.002 L122.821,32.118 C125.396,30.129 130.311,26.15 133.354,26.15 C135.226,26.15 136.514,27.496 136.514,29.544 C136.514,34.342 126.683,41.365 126.683,43.354 C126.683,43.822 127.034,44.173 127.619,44.173 C129.55,44.173 133.412,41.189 141.43,33.932 L141.43,34.752 C135.168,40.604 130.077,44.875 127.619,44.875 C126.273,44.875 125.279,44.056 125.279,42.183 C125.279,37.795 135.11,30.714 135.11,28.49 C135.11,27.554 134.407,26.852 133.237,26.852 C129.375,26.852 120.597,33.874 112.639,43.822 L108.543,43.822 L122.704,28.549 Z" id="Fill-3" fill="#FFFFFF"></path>
            <path d="M160.039,14.563 C161.21,14.563 162.146,15.5 162.146,16.67 C162.146,17.84 161.21,18.777 160.039,18.777 C158.869,18.777 157.933,17.84 157.933,16.67 C157.933,15.5 158.869,14.563 160.039,14.563 Z M150.677,26.501 L154.422,26.501 L144.181,37.97 C140.787,41.774 140.027,42.71 140.027,43.237 C140.027,43.822 140.495,44.173 141.548,44.173 C144.181,44.173 148.687,40.194 156.294,33.816 L156.704,34.225 C150.56,39.609 144.24,44.875 141.431,44.875 C139.325,44.875 138.622,43.705 138.622,42.067 C138.622,40.779 139.325,39.492 140.963,37.619 L150.677,26.501 Z" id="Fill-4" fill="#FFFFFF"></path>
            <path d="M162.03,31.767 L166.946,27.203 C166.711,26.735 166.595,26.325 166.595,25.799 C166.595,24.16 167.531,21.82 169.52,21.82 C169.988,21.82 170.456,22.405 170.456,22.873 C170.456,24.394 168.584,26.267 167.648,27.32 C169.052,29.251 170.456,30.831 170.456,33.406 C170.456,35.63 168.935,37.619 167.648,39.258 C171.334,38.614 173.499,37.561 176.074,34.459 L176.425,34.81 C173.968,37.736 171.861,39.433 166.828,39.96 C163.552,42.71 160.158,44.875 156.646,44.875 C153.603,44.875 152.433,43.12 152.433,40.779 C152.433,38.204 155.008,33.991 157.583,33.991 C158.519,33.991 159.455,34.81 159.455,35.981 C159.455,37.268 158.285,38.204 157.466,38.204 C156.295,38.204 155.593,37.268 155.593,36.098 L155.476,36.098 C154.189,37.034 153.136,38.907 153.136,40.896 C153.136,42.652 154.072,44.173 155.827,44.173 C158.636,44.173 168.701,34.693 168.701,30.597 C168.701,29.836 168.174,28.666 167.297,27.671 L162.381,32.118 L162.03,31.767" id="Fill-5" fill="#FFFFFF"></path>
            <path d="M196.733,14.329 L200.595,14.329 L193.163,22.405 L196.791,22.405 L196.323,23.107 L192.52,23.107 L178.066,38.789 C175.667,41.423 174.438,42.652 174.438,43.354 C174.438,43.939 175.14,44.173 175.725,44.173 C177.422,44.173 181.05,42.534 190.589,33.991 L190.94,34.459 C182.747,41.774 178.124,44.875 175.491,44.875 C174.087,44.875 173.385,43.763 173.385,42.418 C173.385,40.72 174.379,38.673 177.715,35.044 L188.658,23.107 L184.854,23.107 L185.439,22.405 L189.301,22.405 L196.733,14.329" id="Fill-6" fill="#FFFFFF"></path>
            <path d="M210.017,14.563 C211.188,14.563 212.124,15.5 212.124,16.67 C212.124,17.84 211.188,18.777 210.017,18.777 C208.847,18.777 207.911,17.84 207.911,16.67 C207.911,15.5 208.847,14.563 210.017,14.563 Z M200.655,26.501 L204.4,26.501 L194.159,37.97 C190.765,41.774 190.005,42.71 190.005,43.237 C190.005,43.822 190.473,44.173 191.526,44.173 C194.159,44.173 198.665,40.194 206.272,33.816 L206.682,34.225 C200.538,39.609 194.218,44.875 191.409,44.875 C189.303,44.875 188.6,43.705 188.6,42.067 C188.6,40.779 189.303,39.492 190.941,37.619 L200.655,26.501 Z" id="Fill-7" fill="#FFFFFF"></path>
            <path d="M223.185,26.852 C220.083,26.852 215.636,30.948 209.667,37.736 C206.507,41.306 206.39,42.008 206.39,42.652 C206.39,43.471 207.151,44.173 209.199,44.173 C211.54,44.173 213.881,42.827 215.929,40.838 C225.584,31.475 225.818,30.363 225.818,28.959 C225.818,27.671 224.706,26.852 223.185,26.852 Z M213.705,43.53 L213.53,43.412 C212.242,44.29 210.369,44.875 208.38,44.875 C205.805,44.875 204.986,43.354 204.986,41.013 C204.986,35.63 215.226,26.15 223.36,26.15 C225.526,26.15 226.52,27.73 226.52,28.959 C226.52,29.427 226.403,29.953 226.228,30.363 L226.345,30.48 L229.797,26.501 L233.777,26.501 L217.04,43.881 L217.158,43.998 C223.243,42.301 229.329,38.322 234.713,34.342 L234.713,35.044 C230.148,38.673 222.073,43.763 215.987,44.992 L202.645,59.036 L198.549,59.036 L213.705,43.53 Z" id="Fill-8" fill="#FFFFFF"></path>
            <path d="M243.317,26.501 L247.18,26.501 L236.354,38.731 C234.598,40.72 234.072,41.774 234.072,42.652 C234.072,43.588 235.066,44.173 236.705,44.173 C239.338,44.173 243.61,41.832 250.515,34.225 L257.479,26.501 L261.224,26.501 L250.691,38.263 C247.94,41.306 247.297,42.067 247.297,43.003 C247.297,43.822 247.765,44.173 248.467,44.173 C250.515,44.173 256.367,40.077 262.628,34.283 L263.038,34.81 C256.074,40.779 251.042,44.875 248.291,44.875 C246.711,44.875 245.775,43.588 245.892,41.949 C245.892,40.779 246.185,39.96 246.595,39.375 L246.477,39.258 C242.381,42.886 239.338,44.875 236.061,44.875 C234.13,44.875 232.316,43.412 232.316,41.774 C232.316,40.194 233.194,38.438 234.774,36.566 L243.317,26.501" id="Fill-9" fill="#FFFFFF"></path>
            <path d="M278.43,26.501 C276.207,26.501 273.164,29.427 267.137,36.215 C273.398,36.215 279.659,30.831 279.659,27.671 C279.659,27.028 279.191,26.501 278.43,26.501 Z M283.17,34.869 C277.728,39.55 270.706,44.875 264.445,44.875 C262.689,44.875 260.817,44.173 260.817,41.949 C260.817,35.63 272.228,25.799 278.43,25.799 C280.011,25.799 281.064,26.91 281.064,28.432 C281.064,33.874 270.882,36.917 266.552,36.917 C263.099,40.662 262.572,41.949 262.572,42.769 C262.572,43.939 263.742,44.173 264.913,44.173 C270.062,44.173 276.265,39.901 283.17,34.167 L283.17,34.869 Z" id="Fill-10" fill="#FFFFFF"></path>
            <path d="M85.62,56.149 L89.568,56.149 L81.971,64.403 L85.68,64.403 L85.201,65.121 L81.313,65.121 L66.539,81.151 C64.087,83.843 62.831,85.099 62.831,85.817 C62.831,86.414 63.549,86.655 64.147,86.655 C65.882,86.655 69.59,84.979 79.34,76.246 L79.699,76.725 C71.325,84.201 66.599,87.371 63.908,87.371 C62.472,87.371 61.754,86.236 61.754,84.86 C61.754,83.125 62.771,81.032 66.18,77.323 L77.366,65.121 L73.478,65.121 L74.076,64.403 L78.024,64.403 L85.62,56.149" id="Fill-11" fill="#FFFFFF"></path>
            <path d="M88.669,68.59 L92.737,68.59 L85.08,76.964 L85.2,77.084 C87.114,75.469 89.507,74.572 92.617,73.615 C93.036,71.042 96.026,68.231 97.582,68.231 C98.419,68.231 99.017,68.47 99.017,69.367 C99.017,71.581 95.069,73.674 93.275,74.153 C93.275,75.887 93.873,77.323 95.308,77.323 C96.505,77.323 97.163,77.084 97.761,76.606 L98.06,77.084 C97.582,77.443 96.386,78.041 95.488,78.041 C93.634,78.041 92.557,76.606 92.557,74.332 C87.533,75.588 83.944,78.16 80.535,82.108 L76.946,86.295 L73.118,86.295 L88.669,68.59" id="Fill-12" fill="#FFFFFF"></path>
            <path d="M116.899,56.388 C118.096,56.388 119.053,57.345 119.053,58.541 C119.053,59.738 118.096,60.695 116.899,60.695 C115.703,60.695 114.746,59.738 114.746,58.541 C114.746,57.345 115.703,56.388 116.899,56.388 Z M107.329,68.59 L111.157,68.59 L100.689,80.314 C97.22,84.201 96.443,85.158 96.443,85.698 C96.443,86.295 96.921,86.655 97.998,86.655 C100.689,86.655 105.295,82.586 113.071,76.067 L113.49,76.486 C107.209,81.989 100.749,87.371 97.878,87.371 C95.725,87.371 95.007,86.176 95.007,84.5 C95.007,83.185 95.725,81.869 97.4,79.955 L107.329,68.59 Z" id="Fill-13" fill="#FFFFFF"></path>
            <path d="M122.76,68.59 L126.468,68.59 L121.264,74.213 L121.384,74.332 C124.255,71.76 128.861,68.231 131.553,68.231 C133.646,68.231 134.962,69.607 134.962,71.7 C134.962,76.606 124.913,83.783 124.913,85.817 C124.913,86.295 125.272,86.655 125.87,86.655 C127.844,86.655 131.792,83.604 139.986,76.187 L139.986,77.024 C133.586,83.005 128.382,87.371 125.87,87.371 C124.494,87.371 123.477,86.534 123.477,84.62 C123.477,80.134 133.526,72.897 133.526,70.624 C133.526,69.667 132.808,68.949 131.612,68.949 C128.023,68.949 118.453,77.084 110.557,86.295 L106.37,86.295 L122.76,68.59" id="Fill-14" fill="#FFFFFF"></path>
            <path d="M156.432,68.231 C152.544,68.231 144.11,76.486 140.521,81.57 C139.325,83.244 139.206,84.022 139.206,84.62 C139.206,85.637 140.043,86.295 141.718,86.295 C146.443,86.295 154.279,77.981 157.509,73.435 C158.705,71.76 158.825,71.162 158.825,70.384 C158.825,69.188 158.107,68.231 156.432,68.231 Z M127.362,103.282 C130.652,103.282 133.164,100.89 144.589,88.569 L144.47,88.448 C132.028,92.994 124.611,97.42 124.611,101.129 C124.611,102.804 125.927,103.282 127.362,103.282 Z M161.696,68.59 L165.643,68.59 L150.63,85.936 L150.75,85.936 C156.612,83.723 161.636,80.613 166.003,76.606 L166.421,76.964 C162.294,81.091 154.937,85.279 149.613,86.953 C142.675,95.268 133.224,104 127.482,104 C124.85,104 123.893,102.684 123.893,101.01 C123.893,96.823 133.344,91.559 145.247,87.612 L149.135,83.185 L149.135,83.065 C146.443,85.457 143.632,87.013 141.239,87.013 C139.086,87.013 137.411,85.698 137.411,83.424 C137.411,76.964 148.656,67.513 156.073,67.513 C158.466,67.513 159.543,68.47 159.543,69.966 C159.543,70.624 159.423,70.983 159.183,71.581 L159.304,71.581 L161.696,68.59 Z" id="Fill-15" fill="#FFFFFF"></path>
            <g id="Group-19">
                <mask id="mask-2" fill="white">
                    <use xlink:href="#path-1"></use>
                </mask>
                <g id="Clip-17"></g>
                <path d="M172.04,73.973 L177.065,69.308 C176.826,68.829 176.706,68.41 176.706,67.872 C176.706,66.198 177.663,63.805 179.697,63.805 C180.175,63.805 180.654,64.403 180.654,64.882 C180.654,66.437 178.74,68.351 177.783,69.427 C179.218,71.402 180.654,73.016 180.654,75.649 C180.654,77.921 179.098,79.955 177.783,81.629 C181.551,80.972 183.764,79.895 186.396,76.725 L186.755,77.084 C184.242,80.074 182.089,81.809 176.945,82.348 C173.596,85.158 170.126,87.371 166.537,87.371 C163.427,87.371 162.231,85.577 162.231,83.185 C162.231,80.553 164.863,76.246 167.494,76.246 C168.451,76.246 169.409,77.084 169.409,78.28 C169.409,79.596 168.212,80.553 167.375,80.553 C166.179,80.553 165.461,79.596 165.461,78.4 L165.341,78.4 C164.025,79.357 162.949,81.271 162.949,83.305 C162.949,85.099 163.906,86.655 165.7,86.655 C168.571,86.655 178.859,76.964 178.859,72.777 C178.859,71.999 178.321,70.803 177.424,69.786 L172.399,74.332 L172.04,73.973" id="Fill-16" fill="#FFFFFF" mask="url(#mask-2)"></path>
                <path d="M64.687,58.308 C61.008,59.058 57.356,59.032 53.763,58.324 C54.007,60.278 54.371,62.183 54.461,64.1 C54.735,69.946 53.31,75.421 50.512,80.532 C46.238,88.344 40.059,94.109 31.778,97.464 C25.201,100.128 18.468,100.71 11.658,98.311 C7.438,96.823 3.982,94.261 1.333,90.642 C-0.612,87.986 -0.404,84.351 1.794,82.142 C4.236,79.688 7.903,79.412 10.615,81.481 C13.182,83.439 13.966,87.003 12.354,89.872 C11.621,91.178 10.758,92.44 7.622,93.427 C9.005,93.756 10.373,94.173 11.772,94.401 C20.865,95.881 28.888,93.603 35.427,87.071 C43.35,79.157 45.265,66.998 40.475,56.851 C37.369,50.274 32.504,45.502 25.833,42.583 C25.707,42.528 25.594,42.444 25.327,42.286 C29.142,41.524 32.792,41.524 36.539,42.281 C36.42,41.721 36.306,41.224 36.208,40.723 C34.876,33.956 35.923,27.496 38.973,21.388 C43.993,11.339 51.845,4.576 62.783,1.697 C68.971,0.068 75.085,0.44 80.925,3.287 C84.234,4.9 86.976,7.218 89.053,10.247 C90.551,12.432 90.214,15.935 88.497,17.871 C86.454,20.176 83.35,20.904 80.72,19.695 C78.154,18.515 76.637,16.011 76.804,13.229 C76.963,10.564 78.835,8.195 81.451,7.351 C81.633,7.292 81.816,7.24 81.998,7.185 C82.009,7.097 82.02,7.01 82.031,6.922 C80.237,6.581 78.457,6.112 76.648,5.92 C68.51,5.056 61.292,7.277 55.332,12.912 C49.445,18.477 46.781,25.468 47.182,33.551 C47.547,40.908 50.541,47.132 55.75,52.292 C58.169,54.688 60.994,56.52 64.105,57.907 C64.262,57.977 64.42,58.045 64.572,58.125 C64.611,58.146 64.627,58.209 64.687,58.308" id="Fill-18" fill="#FFFFFF" mask="url(#mask-2)"></path>
            </g>
        </g>
    </g>
</svg>