<?xml version="1.0" encoding="UTF-8"?>
<svg width="370px" height="73px" viewBox="0 0 370 73" version="1.1" xmlns="http://www.w3.org/2000/svg" xmlns:xlink="http://www.w3.org/1999/xlink">
    <!-- Generator: Sketch 51.3 (57544) - http://www.bohemiancoding.com/sketch -->
    <title>Chicago_Gospel_Choir_FIN</title>
    <desc>Created with Sketch.</desc>
    <defs>
        <polygon id="path-1" points="0.06 0.97 97.999 0.97 97.999 32.94 0.06 32.94"></polygon>
        <polygon id="path-3" points="0.999 0.143 149.637 0.143 149.637 31.94 0.999 31.94"></polygon>
    </defs>
    <g id="Chicago_Gospel_Choir_FIN" stroke="none" stroke-width="1" fill="none" fill-rule="evenodd">
        <g id="Group-5" transform="translate(0.000000, 40.000000)">
            <mask id="mask-2" fill="white">
                <use xlink:href="#path-1"></use>
            </mask>
            <g id="Clip-2"></g>
            <path d="M29.656,28.165 C29.656,28.77 29.828,29.201 29.828,29.547 C29.828,29.892 29.569,30.064 29.138,30.237 C25.641,32.007 21.972,33 16.49,33 C12.001,33 6.95,31.575 3.971,28.079 C1.338,25.101 0,21.431 0,16.208 C0,12.28 1.856,8.093 5.007,5.373 C8.158,2.61 12.044,1.143 17.224,1.143 C21.584,1.143 24.821,2.352 26.246,3.258 C26.764,3.56 27.065,3.474 27.325,3.128 L27.756,2.438 C27.972,2.136 28.059,2.006 28.317,2.006 C28.793,2.006 28.922,2.308 28.922,2.783 L29.569,11.675 C29.612,12.193 29.569,12.409 29.396,12.453 L28.188,12.711 C27.929,12.755 27.799,12.668 27.67,12.28 C26.979,10.165 25.598,7.402 23.742,5.718 C22.058,4.121 19.857,3.042 16.921,3.042 C14.59,3.042 12.432,3.776 10.403,6.28 C8.417,8.654 6.95,12.237 6.95,16.122 C6.95,21.215 8.375,25.661 10.705,27.992 C12.734,30.021 14.374,30.928 17.31,30.928 C19.555,30.928 20.763,30.755 22.188,30.064 C23.094,29.633 23.181,28.251 23.181,26.007 L23.181,22.898 C23.181,21.345 22.749,20.913 21.67,20.913 L19.857,20.913 C19.598,20.913 19.555,20.74 19.555,20.524 L19.555,19.446 C19.555,19.273 19.598,19.144 19.857,19.144 C20.245,19.144 22.36,19.273 26.246,19.273 C30.217,19.273 31.814,19.144 32.159,19.144 C32.505,19.144 32.548,19.273 32.548,19.489 L32.548,20.567 C32.548,20.827 32.505,20.913 32.246,20.913 L30.994,20.913 C30.217,20.913 29.656,21.215 29.656,22.467 L29.656,28.165" id="Fill-1" fill="#FFFFFF" mask="url(#mask-2)"></path>
            <path d="M64.453,17.805 C64.453,8.352 58.237,3.171 54.611,3.171 C53.748,3.171 51.589,2.956 48.956,5.502 C46.409,7.92 45.114,12.453 45.114,15.992 C45.114,27.043 51.46,30.971 55.043,30.971 C63.028,30.971 64.453,21.345 64.453,17.805 Z M44.553,30.194 C41.488,28.338 38.207,23.676 38.207,17.374 C38.207,14.74 38.898,10.64 42.222,6.625 C46.021,2.006 50.898,1.143 54.784,1.143 C58.366,1.143 61.69,1.704 65.316,4.553 C68.597,7.143 71.23,11.503 71.23,17.46 C71.23,20.611 70.237,23.892 67.993,26.913 C65.187,30.41 61.518,33 54.697,33 C51.719,33 47.963,32.31 44.553,30.194 Z" id="Fill-3" fill="#FFFFFF" mask="url(#mask-2)"></path>
            <path d="M79.912,22.813 C80.084,22.813 80.214,22.855 80.214,23.157 C80.3,24.496 80.904,26.353 81.94,28.035 C83.192,30.021 85.307,30.971 87.379,30.971 C89.451,30.971 92.775,29.59 92.775,26.18 C92.775,22.597 92.085,21.561 86.473,19.446 C85.178,18.971 82.415,17.589 80.214,15.69 C78.703,14.352 78.055,12.064 78.055,9.561 C78.055,6.927 78.703,5.157 81.293,3.215 C83.235,1.747 84.876,1.143 87.509,1.143 C90.66,1.143 92.344,1.661 93.25,2.006 C93.682,2.179 93.984,2.092 94.243,1.79 L94.804,1.229 C94.977,1.056 95.192,0.97 95.452,0.97 C95.754,0.97 95.84,1.445 95.883,1.704 L96.574,9.085 C96.574,9.258 96.488,9.301 96.358,9.344 L95.408,9.646 C95.192,9.733 94.977,9.646 94.847,9.344 C94.373,8.093 93.639,6.409 92.171,4.855 C91.092,3.646 89.797,3.042 87.854,3.042 C84.617,3.042 83.278,5.848 83.278,6.97 C83.278,8.567 83.322,9.862 84.401,10.941 C85.523,12.107 87.984,13.143 90.099,13.748 C92.171,14.352 93.854,15.431 95.625,17.028 C97.308,18.539 97.999,20.438 97.999,23.46 C97.999,28.727 94.243,33 88.545,33 C84.66,33 82.631,32.353 80.818,31.144 C80.3,30.798 80.041,30.669 79.825,30.669 C79.566,30.669 79.394,30.971 79.134,31.402 C78.876,31.878 78.66,31.921 78.357,31.921 C77.883,31.921 77.71,31.705 77.753,31.23 L78.444,23.028 C78.487,22.726 78.616,22.726 78.789,22.726 L79.912,22.813" id="Fill-4" fill="#FFFFFF" mask="url(#mask-2)"></path>
        </g>
        <path d="M113.671,57.632 C114.621,57.849 115.613,57.892 116.304,57.892 C117.642,57.892 119.801,56.51 120.75,54.999 C121.614,53.661 121.786,52.021 121.786,50.424 C121.786,44.467 117.47,43.215 115.7,43.215 C114.966,43.215 114.448,43.258 113.671,43.431 L113.671,57.632 Z M113.671,60.913 C113.671,62.941 113.714,68.812 113.757,69.331 C113.844,70.28 114.275,70.712 114.966,70.712 L117.167,70.712 C117.47,70.712 117.513,70.842 117.513,71.014 L117.513,72.137 C117.513,72.353 117.47,72.481 117.124,72.481 C116.52,72.481 115.182,72.353 110.131,72.353 C106.333,72.353 104.649,72.481 104.174,72.481 C103.872,72.481 103.829,72.353 103.829,72.18 L103.829,71.014 C103.829,70.798 103.872,70.712 104.088,70.712 L105.21,70.712 C106.678,70.712 106.98,70.496 107.109,69.417 C107.153,68.985 107.282,62.251 107.282,57.244 L107.282,52.28 C107.282,49.431 107.239,44.898 107.196,44.38 C107.109,43.517 106.678,43.431 105.814,43.431 L103.786,43.431 C103.57,43.431 103.526,43.344 103.526,43.085 L103.526,41.963 C103.526,41.747 103.57,41.661 103.786,41.661 C104.26,41.661 105.814,41.79 110.347,41.79 C111.124,41.79 113.671,41.661 115.095,41.661 C120.405,41.661 122.952,42.092 125.456,44.035 C127.269,45.416 128.563,47.877 128.563,50.726 C128.563,55.906 124.419,59.446 117.167,59.446 C115.829,59.446 114.836,59.402 113.671,59.316 L113.671,60.913 Z" id="Fill-6" fill="#FFFFFF"></path>
        <path d="M143.925,55.819 C145.911,55.819 147.81,55.69 148.328,55.561 C149.062,55.388 149.666,54.999 150.313,54.222 C150.789,53.575 151.307,52.366 151.307,51.546 C151.307,51.244 151.436,51.158 151.652,51.158 L152.817,51.287 C153.033,51.33 153.206,51.374 153.163,51.632 C153.033,52.366 153.033,54.611 153.033,56.122 C153.033,58.064 153.206,60.136 153.292,61.043 C153.335,61.302 153.163,61.345 152.947,61.388 L151.911,61.604 C151.738,61.646 151.652,61.561 151.565,61.259 C151.393,60.567 150.961,59.575 150.702,59.057 C150.228,58.237 149.191,57.676 148.328,57.546 C147.163,57.374 145.824,57.287 143.925,57.287 L143.925,59.877 C143.925,62.208 144.141,66.395 144.141,67.172 C144.141,69.417 144.616,70.194 145.177,70.453 C145.824,70.712 146.645,70.842 148.803,70.842 C149.537,70.842 151.35,70.798 152.256,70.712 C153.12,70.626 154.415,70.194 155.537,69.287 C156.659,68.381 159.077,65.704 159.94,64.669 C160.113,64.496 160.242,64.453 160.372,64.539 L161.105,64.971 C161.278,65.057 161.321,65.187 161.278,65.316 L159.335,71.834 C159.206,72.223 158.904,72.481 158.386,72.481 C157.954,72.481 154.544,72.353 139.608,72.353 C136.371,72.353 134.86,72.481 134.083,72.481 C133.781,72.481 133.694,72.353 133.694,72.007 L133.694,71.101 C133.694,70.842 133.824,70.712 134.126,70.712 L135.421,70.712 C137.407,70.712 137.58,70.41 137.58,68.899 L137.58,54.438 C137.58,50.855 137.493,45.546 137.45,45.114 C137.277,43.733 136.846,43.431 135.68,43.431 L133.997,43.431 C133.824,43.431 133.781,43.301 133.781,42.999 L133.781,41.963 C133.781,41.833 133.824,41.661 134.083,41.661 C135.033,41.661 136.543,41.79 140.472,41.79 L155.623,41.747 C156.314,41.747 157.134,41.661 157.35,41.661 C157.566,41.661 157.652,41.747 157.695,41.876 C157.868,42.481 159.292,48.395 159.465,48.827 C159.551,49.042 159.551,49.128 159.335,49.258 L158.645,49.604 C158.472,49.69 158.256,49.646 158.127,49.431 C157.911,49.085 154.026,45.2 153.033,44.596 C152.127,44.035 150.918,43.474 149.752,43.431 L144.055,43.258 L143.925,55.819" id="Fill-7" fill="#FFFFFF"></path>
        <g id="Group-13" transform="translate(164.000000, 41.000000)">
            <mask id="mask-4" fill="white">
                <use xlink:href="#path-3"></use>
            </mask>
            <g id="Clip-9"></g>
            <path d="M11.1,17.841 C11.1,18.575 11.1,27.899 11.229,29.626 L13.689,29.626 C15.719,29.626 17.661,29.626 19.992,29.41 C22.323,29.194 25.258,24.014 25.906,22.417 C26.036,22.157 26.165,22.028 26.424,22.157 L27.287,22.503 C27.417,22.59 27.417,22.633 27.374,22.892 C27.244,23.193 25.518,30.316 25.258,31.481 C24.136,31.395 11.704,31.353 7.732,31.353 C3.459,31.353 1.905,31.481 1.344,31.481 C1.042,31.481 0.999,31.395 0.999,31.094 L0.999,30.014 C0.999,29.798 1.042,29.712 1.301,29.712 L2.639,29.712 C4.236,29.712 4.495,29.107 4.495,28.633 C4.495,27.812 4.625,17.064 4.625,14.431 L4.625,12.014 C4.625,9.251 4.538,4.675 4.495,3.984 C4.409,2.862 4.193,2.431 3.2,2.431 L1.603,2.431 C1.344,2.431 1.301,2.215 1.301,1.999 L1.301,0.963 C1.301,0.747 1.344,0.661 1.603,0.661 C2.078,0.661 3.632,0.79 7.56,0.79 C12.61,0.79 14.423,0.661 14.812,0.661 C15.157,0.661 15.201,0.79 15.201,1.092 L15.201,2.085 C15.201,2.301 15.114,2.431 14.769,2.431 L12.74,2.431 C11.402,2.431 11.229,2.862 11.229,4.028 C11.229,4.589 11.1,11.107 11.1,14.129 L11.1,17.841" id="Fill-8" fill="#FFFFFF" mask="url(#mask-4)"></path>
            <path d="M47.451,28.028 C44.257,25.18 42.746,20.215 42.746,16.503 C42.746,12.057 44.17,8.042 47.192,4.805 C49.653,2.171 53.235,0.143 58.588,0.143 C62.517,0.143 65.754,1.136 67.265,1.956 C67.869,2.258 68.085,2.215 68.171,1.913 L68.517,0.833 C68.603,0.574 68.689,0.574 69.337,0.574 C69.984,0.574 70.071,0.661 70.071,1.265 C70.071,2.085 70.848,9.424 71.063,10.719 C71.107,11.021 71.063,11.237 70.848,11.28 L69.898,11.539 C69.682,11.625 69.51,11.453 69.38,11.064 C68.905,9.337 67.74,7.136 65.927,5.28 C64.07,3.467 61.783,2.042 58.502,2.042 C52.2,2.042 49.523,7.783 49.566,14.172 C49.566,16.892 50.343,22.201 53.408,25.438 C56.214,28.331 58.675,28.676 60.142,28.676 C65.063,28.676 68.732,26.432 70.33,24.057 C70.545,23.712 70.761,23.539 70.977,23.712 L71.711,24.359 C71.841,24.445 71.884,24.618 71.711,24.877 C69.208,28.503 65.02,32 58.934,32 C53.192,32 50.171,30.445 47.451,28.028" id="Fill-10" fill="#FFFFFF" mask="url(#mask-4)"></path>
            <path d="M80.09,14.345 C80.09,11.668 80.004,5.841 80.004,5.236 C80.004,3.035 79.702,2.431 78.536,2.431 L76.766,2.431 C76.292,2.431 76.248,2.258 76.248,1.999 L76.248,1.179 C76.248,0.92 76.292,0.661 76.723,0.661 C77.457,0.661 78.838,0.79 83.155,0.79 C87.385,0.79 88.939,0.661 89.673,0.661 C90.148,0.661 90.191,0.79 90.191,1.136 L90.191,2.042 C90.191,2.301 90.148,2.431 89.673,2.431 L88.637,2.431 C87.083,2.431 86.867,3.165 86.738,4.805 C86.694,5.409 86.479,11.107 86.479,13.524 L86.479,14.172 C86.479,14.388 86.608,14.518 87.169,14.518 L100.076,14.518 C100.724,14.518 100.94,14.431 100.94,13.956 L100.94,13.524 C100.94,11.064 100.638,5.064 100.638,4.632 C100.594,3.251 100.422,2.431 99.645,2.431 L97.875,2.431 C97.486,2.431 97.443,2.301 97.443,1.999 L97.443,1.049 C97.443,0.79 97.486,0.661 97.832,0.661 C98.609,0.661 100.465,0.79 104.134,0.79 C107.717,0.79 109.53,0.661 110.091,0.661 C110.609,0.661 110.652,0.79 110.652,1.136 L110.652,1.956 C110.652,2.258 110.609,2.431 110.091,2.431 L108.796,2.431 C107.544,2.431 107.415,3.165 107.415,4.632 C107.415,5.236 107.329,12.532 107.329,14.129 L107.329,15.597 C107.329,16.978 107.415,25.18 107.458,27.554 C107.458,29.107 107.89,29.712 109.185,29.712 L110.652,29.712 C110.998,29.712 111.041,29.842 111.041,30.101 L111.041,31.05 C111.041,31.266 110.998,31.481 110.566,31.481 C109.875,31.481 108.408,31.353 104.522,31.353 C100.12,31.353 98.738,31.481 97.745,31.481 C97.271,31.481 97.184,31.266 97.184,31.05 L97.184,30.101 C97.184,29.842 97.228,29.712 97.659,29.712 L99.559,29.712 C100.594,29.712 100.724,28.892 100.767,27.812 C100.854,25.784 100.94,18.834 100.94,17.453 L100.94,16.935 C100.94,16.46 100.508,16.416 99.99,16.416 L87.083,16.416 C86.608,16.416 86.479,16.546 86.479,16.935 L86.479,17.582 C86.479,18.662 86.651,25.309 86.781,28.244 C86.824,29.28 87.256,29.712 88.206,29.712 L89.414,29.712 C89.759,29.712 89.803,29.798 89.803,30.058 L89.803,31.094 C89.803,31.353 89.759,31.481 89.414,31.481 C88.637,31.481 87.126,31.353 83.5,31.353 C78.924,31.353 77.629,31.481 76.766,31.481 C76.377,31.481 76.334,31.353 76.334,31.007 L76.334,30.101 C76.334,29.798 76.377,29.712 76.766,29.712 L78.752,29.712 C79.831,29.712 79.96,28.676 79.96,27.727 C80.004,25.697 80.09,17.323 80.09,16.201 L80.09,14.345" id="Fill-11" fill="#FFFFFF" mask="url(#mask-4)"></path>
            <path d="M142.859,16.805 C142.859,7.352 136.643,2.171 133.017,2.171 C132.154,2.171 129.996,1.956 127.362,4.502 C124.815,6.92 123.521,11.453 123.521,14.992 C123.521,26.043 129.866,29.971 133.449,29.971 C141.435,29.971 142.859,20.345 142.859,16.805 Z M122.959,29.194 C119.895,27.338 116.614,22.676 116.614,16.374 C116.614,13.74 117.304,9.64 120.628,5.625 C124.427,1.006 129.305,0.143 133.19,0.143 C136.772,0.143 140.097,0.704 143.723,3.553 C147.003,6.143 149.637,10.503 149.637,16.46 C149.637,19.611 148.644,22.892 146.399,25.913 C143.593,29.41 139.924,32 133.104,32 C130.125,32 126.37,31.31 122.959,29.194 Z" id="Fill-12" fill="#FFFFFF" mask="url(#mask-4)"></path>
        </g>
        <path d="M323.526,54.266 C323.526,53.229 323.397,45.459 323.354,44.898 C323.268,43.862 322.836,43.431 321.929,43.431 L319.857,43.431 C319.641,43.431 319.512,43.344 319.512,43.171 L319.512,41.92 C319.512,41.747 319.641,41.661 319.814,41.661 C320.332,41.661 322.534,41.79 326.764,41.79 C331.167,41.79 332.548,41.661 333.153,41.661 C333.369,41.661 333.455,41.79 333.455,42.049 L333.455,43.128 C333.455,43.344 333.325,43.431 333.109,43.431 L331.857,43.431 C330.778,43.431 330.131,43.776 330.131,44.553 C330.131,44.984 330.001,54.524 330.001,55.042 L330.001,58.366 C330.001,58.798 330.131,68.77 330.131,69.158 C330.131,70.496 330.778,70.712 331.599,70.712 L333.369,70.712 C333.584,70.712 333.714,70.798 333.714,71.014 L333.714,72.223 C333.714,72.395 333.584,72.481 333.325,72.481 C332.807,72.481 331.081,72.353 326.98,72.353 C322.447,72.353 320.591,72.481 320.116,72.481 C319.9,72.481 319.771,72.395 319.771,72.137 L319.771,70.971 C319.771,70.798 319.9,70.712 320.116,70.712 L321.368,70.712 C322.231,70.712 323.138,70.582 323.311,69.547 C323.397,68.899 323.526,59.575 323.526,57.287 L323.526,54.266" id="Fill-14" fill="#FFFFFF"></path>
        <path d="M349.041,57.374 C349.861,57.416 350.379,57.416 350.768,57.416 C356.465,57.416 357.804,51.978 357.804,49.949 C357.804,47.963 357.113,46.064 356.163,45.114 C354.609,43.733 352.667,43.215 351.372,43.215 C350.638,43.215 350.077,43.301 349.731,43.603 C349.472,43.776 349.343,44.251 349.256,44.769 L349.041,57.374 Z M342.997,52.711 C342.997,49.517 342.997,46.754 342.954,45.589 C342.911,44.165 342.35,43.431 341.746,43.431 L340.019,43.431 C339.803,43.431 339.76,43.301 339.76,43.128 L339.76,41.963 C339.76,41.747 339.803,41.661 340.019,41.661 C340.407,41.661 341.746,41.79 346.451,41.79 C348.868,41.79 352.667,41.661 354.437,41.661 C357.804,41.661 360.307,42.87 362.077,44.51 C363.631,45.934 364.538,47.618 364.538,49.215 C364.538,54.697 360.437,57.158 356.638,57.503 L356.638,57.805 C357.976,58.237 358.667,59.057 359.487,60.093 C360.048,60.783 362.422,64.625 362.768,65.144 C363.027,65.532 365.358,68.812 366.221,69.806 C366.739,70.366 368.379,70.712 369.373,70.712 C369.674,70.712 369.718,70.885 369.718,71.058 L369.718,72.094 C369.718,72.353 369.674,72.481 369.373,72.481 C369.027,72.481 367.905,72.353 364.581,72.353 C363.329,72.353 361.732,72.438 360.48,72.481 C359.185,71.489 356.509,66.481 355.775,65.014 C354.307,62.078 352.537,58.884 350.465,58.884 L348.998,58.884 L348.998,61.086 C348.998,63.633 349.127,68.467 349.213,69.028 C349.3,69.935 349.645,70.712 350.292,70.712 L352.063,70.712 C352.365,70.712 352.408,70.842 352.408,71.058 L352.408,72.094 C352.408,72.395 352.365,72.481 351.717,72.481 C351.674,72.481 350.595,72.353 346.062,72.353 C341.486,72.353 340.494,72.481 340.019,72.481 C339.673,72.481 339.673,72.353 339.673,72.05 L339.673,71.058 C339.673,70.842 339.673,70.712 339.889,70.712 L341.184,70.712 C342.134,70.712 342.911,70.41 342.911,69.331 C342.997,65.057 342.997,60.999 342.997,56.899 L342.997,52.711 Z" id="Fill-15" fill="#FFFFFF"></path>
        <polygon id="Fill-16" fill="#FFFFFF" points="293.274 3.773 358.221 3.773 358.221 3.224 293.274 3.224"></polygon>
        <polygon id="Fill-17" fill="#FFFFFF" points="293.912 26.252 358.859 26.252 358.859 25.703 293.912 25.703"></polygon>
        <polyline id="Fill-18" fill="#FFFFFF" points="313.692 12.454 312.521 6.16 311.35 12.454 305.313 10.322 310.178 14.484 305.313 18.645 311.35 16.513 312.521 22.807 313.692 16.513 319.729 18.645 314.863 14.484 319.729 10.322 313.692 12.454"></polyline>
        <polyline id="Fill-19" fill="#FFFFFF" points="346.543 10.322 340.505 12.454 339.335 6.16 338.164 12.454 332.127 10.322 336.992 14.484 332.126 18.645 338.164 16.513 339.335 22.807 340.505 16.513 346.543 18.645 341.677 14.484 346.543 10.322"></polyline>
        <polyline id="Fill-20" fill="#FFFFFF" points="23.692 12.454 22.521 6.16 21.35 12.454 15.314 10.322 20.178 14.484 15.313 18.645 21.35 16.513 22.521 22.807 23.692 16.513 29.729 18.645 24.863 14.484 29.729 10.322 23.692 12.454"></polyline>
        <polyline id="Fill-21" fill="#FFFFFF" points="50.505 12.454 49.335 6.16 48.164 12.454 42.127 10.322 46.992 14.484 42.127 18.645 48.164 16.513 49.335 22.807 50.505 16.513 56.543 18.645 51.677 14.484 56.543 10.322 50.505 12.454"></polyline>
        <polygon id="Fill-22" fill="#FFFFFF" points="3.274 3.773 68.221 3.773 68.221 3.224 3.274 3.224"></polygon>
        <polygon id="Fill-23" fill="#FFFFFF" points="3.912 26.252 68.859 26.252 68.859 25.703 3.912 25.703"></polygon>
        <path d="M87.887,21.891 C85.569,19.702 84.442,15.967 84.442,12.876 C84.442,9.882 85.408,6.791 87.727,4.344 C89.368,2.605 92.266,1.092 95.775,1.092 C98.705,1.092 101.12,2.187 102.279,2.863 C102.698,3.121 102.858,3.088 102.923,2.863 L103.181,1.93 C103.245,1.736 103.309,1.736 103.599,1.736 C103.889,1.736 103.953,1.801 103.953,2.251 C103.953,2.863 104.597,7.596 104.758,8.498 C104.79,8.658 104.758,8.787 104.629,8.819 L104.146,8.948 C103.985,8.98 103.921,8.948 103.824,8.69 C103.374,7.628 102.666,6.083 101.313,4.698 C99.961,3.314 98.254,2.219 95.711,2.219 C89.948,2.219 87.63,7.338 87.662,12.039 C87.662,13.906 88.242,17.544 90.753,20.313 C92.942,22.76 94.777,23.018 96.935,23.018 C100.573,23.018 103.406,21.021 104.887,18.929 C104.983,18.768 105.048,18.736 105.145,18.833 L105.563,19.154 C105.66,19.219 105.724,19.283 105.627,19.444 C103.696,22.245 100.573,24.853 96.033,24.853 C92.234,24.853 89.819,23.662 87.887,21.891" id="Fill-24" fill="#FFFFFF"></path>
        <path d="M116.544,11.685 C116.544,9.689 116.479,5.342 116.479,4.827 C116.479,3.185 116.254,2.734 115.063,2.734 L113.549,2.734 C113.389,2.734 113.356,2.67 113.356,2.477 L113.356,1.704 C113.356,1.543 113.453,1.479 113.614,1.479 C114.258,1.479 115.288,1.575 118.122,1.575 C120.633,1.575 121.792,1.479 122.403,1.479 C122.629,1.479 122.726,1.511 122.726,1.64 L122.726,2.477 C122.726,2.67 122.661,2.734 122.468,2.734 L120.826,2.734 C119.731,2.734 119.57,3.282 119.57,4.569 C119.57,5.021 119.506,9.27 119.506,11.073 L119.506,11.621 C119.506,11.781 119.603,11.878 119.892,11.878 L131.805,11.878 C132.288,11.878 132.449,11.813 132.449,11.395 L132.449,11.073 C132.449,9.238 132.352,4.763 132.352,4.376 C132.352,3.346 132.223,2.734 131.29,2.734 L129.615,2.734 C129.455,2.734 129.39,2.67 129.39,2.509 L129.39,1.672 C129.39,1.543 129.422,1.479 129.583,1.479 C130.259,1.479 131.644,1.575 133.833,1.575 C136.022,1.575 137.342,1.479 137.954,1.479 C138.18,1.479 138.212,1.543 138.212,1.736 L138.212,2.509 C138.212,2.702 138.147,2.734 137.954,2.734 L136.505,2.734 C135.572,2.734 135.475,3.282 135.475,4.441 C135.475,4.892 135.411,10.333 135.411,11.524 L135.411,12.619 C135.411,13.649 135.475,19.766 135.507,21.601 C135.507,22.76 135.829,23.211 136.795,23.211 L138.212,23.211 C138.437,23.211 138.501,23.275 138.501,23.437 L138.501,24.209 C138.501,24.402 138.437,24.467 138.244,24.467 C137.632,24.467 136.538,24.37 134.187,24.37 C131.386,24.37 130.356,24.467 129.39,24.467 C129.261,24.467 129.197,24.37 129.197,24.241 L129.197,23.437 C129.197,23.275 129.261,23.211 129.455,23.211 L131.483,23.211 C132.255,23.211 132.352,22.599 132.352,21.73 C132.384,20.217 132.449,15.033 132.449,13.874 L132.449,13.423 C132.449,13.069 132.288,13.037 131.74,13.037 L119.957,13.037 C119.603,13.037 119.506,13.134 119.506,13.359 L119.506,14.035 C119.506,14.904 119.538,19.863 119.57,22.116 C119.603,22.889 119.924,23.211 120.601,23.211 L122.178,23.211 C122.371,23.211 122.436,23.275 122.436,23.437 L122.436,24.241 C122.436,24.402 122.371,24.467 122.178,24.467 C121.566,24.467 120.439,24.37 118.122,24.37 C115.353,24.37 114.387,24.467 113.646,24.467 C113.485,24.467 113.421,24.402 113.421,24.241 L113.421,23.404 C113.421,23.275 113.518,23.211 113.646,23.211 L115.546,23.211 C116.351,23.211 116.447,22.438 116.447,21.666 C116.479,20.152 116.544,13.906 116.544,13.069 L116.544,11.685" id="Fill-25" fill="#FFFFFF"></path>
        <path d="M149.829,10.88 C149.829,10.107 149.732,4.312 149.7,3.829 C149.636,3.056 149.314,2.734 148.091,2.734 L146.223,2.734 C146.063,2.734 145.966,2.67 145.966,2.541 L145.966,1.672 C145.966,1.543 146.063,1.479 146.191,1.479 C146.578,1.479 148.219,1.575 151.214,1.575 C154.079,1.575 155.109,1.479 155.56,1.479 C155.721,1.479 155.786,1.575 155.786,1.704 L155.786,2.509 C155.786,2.67 155.689,2.734 155.528,2.734 L154.015,2.734 C153.371,2.734 152.888,2.992 152.888,3.636 C152.888,3.958 152.791,11.073 152.791,11.459 L152.791,13.938 C152.791,14.261 152.888,21.698 152.888,22.052 C152.888,23.05 153.371,23.211 154.401,23.211 L155.721,23.211 C155.882,23.211 155.979,23.275 155.979,23.437 L155.979,24.273 C155.979,24.402 155.882,24.467 155.689,24.467 C155.303,24.467 154.015,24.37 151.214,24.37 C148.155,24.37 146.771,24.467 146.417,24.467 C146.255,24.467 146.159,24.402 146.159,24.273 L146.159,23.404 C146.159,23.275 146.255,23.211 146.417,23.211 L148.219,23.211 C148.863,23.211 149.54,23.114 149.668,22.277 C149.732,21.794 149.829,14.84 149.829,13.134 L149.829,10.88" id="Fill-26" fill="#FFFFFF"></path>
        <path d="M167.57,21.891 C165.252,19.702 164.125,15.967 164.125,12.876 C164.125,9.882 165.091,6.791 167.41,4.344 C169.051,2.605 171.949,1.092 175.458,1.092 C178.388,1.092 180.803,2.187 181.962,2.863 C182.381,3.121 182.542,3.088 182.606,2.863 L182.864,1.93 C182.928,1.736 182.992,1.736 183.282,1.736 C183.572,1.736 183.636,1.801 183.636,2.251 C183.636,2.863 184.28,7.596 184.441,8.498 C184.474,8.658 184.441,8.787 184.313,8.819 L183.83,8.948 C183.668,8.98 183.604,8.948 183.507,8.69 C183.057,7.628 182.349,6.083 180.996,4.698 C179.644,3.314 177.938,2.219 175.394,2.219 C169.631,2.219 167.313,7.338 167.345,12.039 C167.345,13.906 167.925,17.544 170.436,20.313 C172.625,22.76 174.46,23.018 176.618,23.018 C180.256,23.018 183.089,21.021 184.57,18.929 C184.667,18.768 184.731,18.736 184.828,18.833 L185.246,19.154 C185.343,19.219 185.407,19.283 185.311,19.444 C183.379,22.245 180.256,24.853 175.716,24.853 C171.917,24.853 169.502,23.662 167.57,21.891" id="Fill-27" fill="#FFFFFF"></path>
        <path d="M205.539,14.261 C205.249,13.295 202.641,5.246 202.48,4.763 C202.383,4.537 202.319,4.312 202.222,4.312 C202.093,4.312 201.965,4.537 201.868,4.795 C201.707,5.213 198.648,13.456 198.423,14.261 L205.539,14.261 Z M198.004,15.419 C197.683,16.225 195.912,21.118 195.751,21.794 C195.719,22.02 195.654,22.342 195.654,22.503 C195.654,22.954 196.041,23.211 196.749,23.211 L198.262,23.211 C198.487,23.211 198.584,23.275 198.584,23.437 L198.584,24.177 C198.584,24.402 198.487,24.467 198.327,24.467 C197.876,24.467 196.556,24.37 194.656,24.37 C192.306,24.37 191.598,24.467 191.147,24.467 C190.986,24.467 190.921,24.402 190.921,24.209 L190.921,23.437 C190.921,23.275 191.05,23.211 191.179,23.211 L192.306,23.211 C193.271,23.211 193.723,22.76 194.173,21.73 C194.398,21.215 196.749,15.259 197.683,12.619 C197.908,11.975 200.516,5.053 200.806,4.183 C200.902,3.861 201.063,3.443 200.838,3.088 C200.741,2.96 200.612,2.799 200.612,2.67 C200.612,2.573 200.677,2.445 200.902,2.38 C201.804,2.187 203.22,1.221 203.574,0.771 C203.735,0.609 203.832,0.48 203.993,0.48 C204.186,0.48 204.25,0.674 204.347,1.028 C204.959,3.056 207.47,10.268 208.082,12.329 C208.822,14.84 210.915,20.829 211.366,21.762 C211.913,22.825 212.75,23.211 213.555,23.211 L214.618,23.211 C214.811,23.211 214.875,23.308 214.875,23.437 L214.875,24.241 C214.875,24.402 214.779,24.467 214.553,24.467 C213.974,24.467 213.298,24.37 210.69,24.37 C208.018,24.37 206.891,24.467 206.15,24.467 C205.989,24.467 205.893,24.37 205.893,24.177 L205.893,23.437 C205.893,23.243 205.989,23.211 206.182,23.211 L206.987,23.211 C207.889,23.211 208.179,22.889 207.953,21.988 C207.695,20.829 206.375,16.708 205.925,15.419 L198.004,15.419 Z" id="Fill-28" fill="#FFFFFF"></path>
        <path d="M238.574,17.255 C238.574,16.096 238.219,15.774 237.253,15.774 L235.901,15.774 C235.74,15.774 235.676,15.709 235.676,15.581 L235.676,14.776 C235.676,14.583 235.708,14.518 235.869,14.518 C236.32,14.518 237.769,14.615 239.958,14.615 C242.276,14.615 243.307,14.518 243.757,14.518 C243.982,14.518 244.015,14.615 244.015,14.744 L244.015,15.516 C244.015,15.645 243.982,15.774 243.79,15.774 L242.534,15.774 C241.954,15.774 241.536,15.999 241.536,16.997 L241.536,21.247 C241.536,21.698 241.665,22.02 241.665,22.277 C241.665,22.535 241.471,22.664 241.149,22.792 C238.542,24.112 235.966,24.853 232.36,24.853 C229.494,24.853 225.566,23.791 223.345,21.183 C221.381,18.961 220.383,16.225 220.383,12.329 C220.383,9.399 221.639,6.276 224.021,4.151 C226.307,2.187 229.205,1.092 233.068,1.092 C235.837,1.092 238.316,2.123 239.411,2.96 C239.765,3.25 239.958,3.185 240.151,2.928 L240.634,2.348 C240.763,2.219 240.892,2.058 241.085,2.058 C241.31,2.058 241.375,2.219 241.375,2.445 L241.471,8.594 C241.471,8.755 241.439,8.884 241.31,8.884 L240.73,8.948 C240.602,8.948 240.505,8.852 240.473,8.69 C240.216,7.789 239.668,6.276 238.542,4.892 C237.576,3.7 235.579,2.251 232.682,2.251 C230.46,2.251 228.464,2.799 226.532,4.859 C224.793,6.694 223.699,9.367 223.699,12.265 C223.699,16.063 224.762,19.38 226.758,21.279 C228.367,22.825 230.332,23.565 232.424,23.565 C235,23.565 236.578,23.114 237.704,22.471 C238.445,22.02 238.574,21.312 238.574,19.637 L238.574,17.255" id="Fill-29" fill="#FFFFFF"></path>
        <path d="M272.221,13.52 C272.221,6.469 267.198,2.316 263.624,2.316 C263.141,2.316 260.952,1.93 258.537,4.215 C256.38,6.276 255.318,9.528 255.318,12.168 C255.318,20.635 261.209,23.629 263.946,23.629 C271.029,23.629 272.221,16.386 272.221,13.52 Z M256.767,22.76 C254.48,21.376 252.034,17.899 252.034,13.198 C252.034,11.234 252.549,8.175 255.028,5.181 C257.861,1.736 261.049,1.092 263.753,1.092 C265.781,1.092 268.421,1.511 270.965,3.636 C273.315,5.664 275.376,8.819 275.376,13.263 C275.376,15.613 274.635,18.06 272.961,20.313 C270.997,22.921 268.132,24.853 263.688,24.853 C262.111,24.853 259.31,24.338 256.767,22.76 Z" id="Fill-30" fill="#FFFFFF"></path>
    </g>
</svg>