<?xml version="1.0" encoding="UTF-8"?>
<svg width="208px" height="82px" viewBox="0 0 208 82" version="1.1" xmlns="http://www.w3.org/2000/svg" xmlns:xlink="http://www.w3.org/1999/xlink">
    <!-- Generator: Sketch 51.3 (57544) - http://www.bohemiancoding.com/sketch -->
    <title>pivot</title>
    <desc>Created with Sketch.</desc>
    <defs>
        <polygon id="path-1" points="0.06 0.314 24.947 0.314 24.947 53.88 0.06 53.88"></polygon>
    </defs>
    <g id="Page-1" stroke="none" stroke-width="1" fill="none" fill-rule="evenodd">
        <g id="pivot">
            <g id="Group-3" transform="translate(0.000000, 1.000000)">
                <mask id="mask-2" fill="white">
                    <use xlink:href="#path-1"></use>
                </mask>
                <g id="Clip-2"></g>
                <path d="M8.417,7.967 L8.417,26.102 L12.397,26.102 C15.076,26.102 16.529,24.878 16.529,21.052 L16.529,13.017 C16.529,9.191 15.076,7.967 12.397,7.967 L8.417,7.967 Z M24.947,13.552 L24.947,20.516 C24.947,29.087 20.815,33.755 12.397,33.755 L8.417,33.755 L8.417,53.88 L0,53.88 L0,0.314 L12.397,0.314 C20.815,0.314 24.947,4.982 24.947,13.552 Z" id="Fill-1" fill="#FFFFFF" mask="url(#mask-2)"></path>
            </g>
            <polygon id="Fill-4" fill="#FFFFFF" points="40.707 54.879 49.124 54.879 49.124 1.314 40.707 1.314"></polygon>
            <polyline id="Fill-5" fill="#FFFFFF" points="79.733 45.009 79.886 45.009 86.237 1.314 93.966 1.314 85.701 54.88 73.151 54.88 64.887 1.314 73.381 1.314 79.733 45.009"></polyline>
            <path d="M117.381,42.56 C117.381,46.386 119.063,47.84 121.742,47.84 C124.42,47.84 126.103,46.386 126.103,42.56 L126.103,13.635 C126.103,9.808 124.42,8.354 121.742,8.354 C119.063,8.354 117.381,9.808 117.381,13.635 L117.381,42.56 Z M108.962,14.17 C108.962,5.6 113.477,0.702 121.742,0.702 C130.007,0.702 134.521,5.6 134.521,14.17 L134.521,42.024 C134.521,50.595 130.007,55.492 121.742,55.492 C113.477,55.492 108.962,50.595 108.962,42.024 L108.962,14.17 Z" id="Fill-6" fill="#FFFFFF"></path>
            <polyline id="Fill-7" fill="#FFFFFF" points="149.365 1.314 175.383 1.314 175.383 8.967 166.583 8.967 166.583 54.88 158.166 54.88 158.166 8.967 149.365 8.967 149.365 1.314"></polyline>
            <polyline id="Fill-8" fill="#FFFFFF" points="79.303 74.114 72.993 57.947 85.614 57.947 79.303 74.114"></polyline>
            <path d="M91.515,65.585 L91.515,79.085 L93.189,79.085 C94.133,79.085 94.701,78.598 94.701,77.248 L94.701,67.422 C94.701,66.071 94.133,65.585 93.189,65.585 L91.515,65.585 Z M88.544,62.885 L93.243,62.885 C96.213,62.885 97.67,64.532 97.67,67.556 L97.67,77.113 C97.67,80.137 96.213,81.785 93.243,81.785 L88.544,81.785 L88.544,62.885 Z" id="Fill-9" fill="#FFFFFF"></path>
            <polygon id="Fill-10" fill="#FFFFFF" points="100.506 81.785 103.475 81.785 103.475 62.885 100.506 62.885"></polygon>
            <path d="M110.576,62.67 C113.464,62.67 114.949,64.397 114.949,67.422 L114.949,68.014 L112.142,68.014 L112.142,67.232 C112.142,65.882 111.601,65.369 110.657,65.369 C109.713,65.369 109.172,65.882 109.172,67.232 C109.172,68.608 109.765,69.635 111.71,71.336 C114.193,73.522 114.976,75.089 114.976,77.248 C114.976,80.272 113.464,82 110.549,82 C107.633,82 106.12,80.272 106.12,77.248 L106.12,76.087 L108.929,76.087 L108.929,77.437 C108.929,78.788 109.523,79.273 110.468,79.273 C111.413,79.273 112.008,78.788 112.008,77.437 C112.008,76.061 111.413,75.035 109.469,73.333 C106.984,71.147 106.202,69.581 106.202,67.422 C106.202,64.397 107.687,62.67 110.576,62.67" id="Fill-11" fill="#FFFFFF"></path>
            <path d="M126.235,74.738 L126.235,77.248 C126.235,80.272 124.723,82 121.808,82 C118.891,82 117.38,80.272 117.38,77.248 L117.38,67.422 C117.38,64.397 118.891,62.67 121.808,62.67 C124.723,62.67 126.235,64.397 126.235,67.422 L126.235,69.257 L123.428,69.257 L123.428,67.232 C123.428,65.882 122.834,65.369 121.889,65.369 C120.944,65.369 120.349,65.882 120.349,67.232 L120.349,77.437 C120.349,78.788 120.944,79.273 121.889,79.273 C122.834,79.273 123.428,78.788 123.428,77.437 L123.428,74.738 L126.235,74.738" id="Fill-12" fill="#FFFFFF"></path>
            <path d="M133.309,79.085 C133.634,79.111 134.012,79.111 134.336,79.111 C135.28,79.111 136.036,78.76 136.036,77.303 L136.036,62.885 L139.006,62.885 L139.006,77.086 C139.006,80.866 136.981,81.838 134.74,81.838 C134.201,81.838 133.796,81.838 133.309,81.785 L133.309,79.085" id="Fill-13" fill="#FFFFFF"></path>
            <path d="M144.703,77.437 C144.703,78.788 145.298,79.301 146.242,79.301 C147.187,79.301 147.78,78.788 147.78,77.437 L147.78,67.232 C147.78,65.882 147.187,65.369 146.242,65.369 C145.298,65.369 144.703,65.882 144.703,67.232 L144.703,77.437 Z M141.732,67.422 C141.732,64.397 143.326,62.67 146.242,62.67 C149.158,62.67 150.751,64.397 150.751,67.422 L150.751,77.248 C150.751,80.272 149.158,82 146.242,82 C143.326,82 141.732,80.272 141.732,77.248 L141.732,67.422 Z" id="Fill-14" fill="#FFFFFF"></path>
            <path d="M162.225,74.738 L162.225,77.248 C162.225,80.272 160.713,82 157.798,82 C154.882,82 153.369,80.272 153.369,77.248 L153.369,67.422 C153.369,64.397 154.882,62.67 157.798,62.67 C160.713,62.67 162.225,64.397 162.225,67.422 L162.225,69.257 L159.417,69.257 L159.417,67.232 C159.417,65.882 158.824,65.369 157.879,65.369 C156.934,65.369 156.34,65.882 156.34,67.232 L156.34,77.437 C156.34,78.788 156.934,79.273 157.879,79.273 C158.824,79.273 159.417,78.788 159.417,77.437 L159.417,74.738 L162.225,74.738" id="Fill-15" fill="#FFFFFF"></path>
            <polyline id="Fill-16" fill="#FFFFFF" points="168.867 74.252 167.949 75.979 167.949 81.785 164.979 81.785 164.979 62.885 167.949 62.885 167.949 71.065 168.004 71.065 171.837 62.885 174.807 62.885 170.676 71.309 174.807 81.785 171.757 81.785 168.867 74.252"></polyline>
            <polyline id="Fill-17" fill="#FFFFFF" points="180.072 70.85 184.149 70.85 184.149 73.549 180.072 73.549 180.072 79.085 185.202 79.085 185.202 81.785 177.102 81.785 177.102 62.885 185.202 62.885 185.202 65.585 180.072 65.585 180.072 70.85"></polyline>
            <polyline id="Fill-18" fill="#FFFFFF" points="190.764 75.52 187.011 62.885 190.115 62.885 192.357 71.498 192.411 71.498 194.652 62.885 197.486 62.885 193.733 75.52 193.733 81.785 190.764 81.785 190.764 75.52"></polyline>
            <path d="M203.428,62.67 C206.315,62.67 207.801,64.397 207.801,67.422 L207.801,68.014 L204.993,68.014 L204.993,67.232 C204.993,65.882 204.453,65.369 203.508,65.369 C202.563,65.369 202.022,65.882 202.022,67.232 C202.022,68.608 202.617,69.635 204.561,71.336 C207.045,73.522 207.828,75.089 207.828,77.248 C207.828,80.272 206.315,82 203.4,82 C200.484,82 198.972,80.272 198.972,77.248 L198.972,76.087 L201.78,76.087 L201.78,77.437 C201.78,78.788 202.374,79.273 203.319,79.273 C204.264,79.273 204.858,78.788 204.858,77.437 C204.858,76.061 204.264,75.035 202.32,73.333 C199.836,71.147 199.054,69.581 199.054,67.422 C199.054,64.397 200.539,62.67 203.428,62.67" id="Fill-19" fill="#FFFFFF"></path>
        </g>
    </g>
</svg>