<?xml version="1.0" encoding="UTF-8"?>
<svg width="268px" height="299px" viewBox="0 0 268 299" version="1.1" xmlns="http://www.w3.org/2000/svg" xmlns:xlink="http://www.w3.org/1999/xlink">
    <!-- Generator: Sketch 51.3 (57544) - http://www.bohemiancoding.com/sketch -->
    <title>biossat_orchestra_k</title>
    <desc>Created with Sketch.</desc>
    <defs>
        <polygon id="path-1" points="0.06 0.288057138 267.224857 0.288057138 267.224857 256.889 0.06 256.889"></polygon>
        <polygon id="path-3" points="0.419 0.772 247.672 0.772 247.672 62.94 0.419 62.94"></polygon>
        <polygon id="path-5" points="0.386 0.251 40.325 0.251 40.325 20.94 0.386 20.94"></polygon>
    </defs>
    <g id="biossat_orchestra_k" stroke="none" stroke-width="1" fill="none" fill-rule="evenodd">
        <g id="Group-4">
            <mask id="mask-2" fill="white">
                <use xlink:href="#path-1"></use>
            </mask>
            <g id="Clip-2"></g>
            <path d="M189.874,23.223 C183.76,31.23 178.334,39.528 173.606,48.116 C168.873,56.707 164.178,65.368 159.521,74.101 C165.34,72.939 171.238,72.137 177.208,71.701 C183.175,71.264 189.218,71.192 195.332,71.481 C197.661,70.609 200.209,69.445 202.975,67.989 C205.739,66.535 208.397,64.821 210.946,62.856 C213.492,60.89 215.785,58.745 217.825,56.414 C219.861,54.087 221.319,51.538 222.192,48.772 C222.773,46.734 222.846,44.806 222.41,42.985 C221.973,41.166 221.21,39.491 220.118,37.961 C219.027,36.434 217.716,35.015 216.186,33.705 C214.659,32.394 213.163,31.23 211.71,30.211 C208.653,28.173 205.412,26.388 201.993,24.861 C198.571,23.331 195.039,22.205 191.402,21.475 C191.256,21.769 191.037,22.058 190.748,22.349 L189.874,23.223 Z M152.75,88.077 C159.301,86.478 165.816,84.512 172.295,82.182 C178.771,79.855 184.995,77.015 190.965,73.665 C188.489,73.375 185.833,73.267 182.995,73.339 C180.158,73.412 177.317,73.556 174.479,73.775 C171.639,73.992 168.873,74.286 166.181,74.649 C163.485,75.014 161.048,75.34 158.865,75.631 C158.719,75.924 158.572,76.213 158.428,76.505 C158.283,76.798 158.026,77.306 157.663,78.032 C157.298,78.762 156.753,79.89 156.027,81.418 C155.297,82.947 154.204,85.168 152.75,88.077 Z M133.535,85.24 C131.058,87.28 130.184,88.662 130.914,89.388 C131.641,90.118 133.023,90.481 135.064,90.481 C137.1,90.481 139.247,90.262 141.505,89.824 C143.761,89.388 145.18,89.17 145.763,89.17 C146.78,87.28 147.801,85.348 148.82,83.384 C149.837,81.418 150.93,79.418 152.096,77.378 C148.891,78.252 145.655,79.271 142.379,80.435 C139.103,81.602 136.156,83.202 133.535,85.24 Z M208.872,167.128 C214.403,160.576 219.059,153.589 222.846,146.164 C226.631,138.739 229.907,130.953 232.674,122.799 C224.665,122.218 216.549,122.362 208.325,123.235 C200.1,124.109 192.128,125.821 184.414,128.367 C176.696,130.916 169.347,134.263 162.359,138.413 C155.37,142.561 149.183,147.694 143.798,153.806 C141.614,156.285 139.393,159.158 137.138,162.433 C134.879,165.709 132.989,169.168 131.46,172.806 C129.932,176.446 128.84,180.155 128.184,183.942 C127.529,187.725 127.639,191.439 128.513,195.078 C129.676,199.3 131.969,202.101 135.391,203.486 C138.81,204.867 142.598,205.412 146.746,205.123 C150.894,204.83 155.078,203.957 159.301,202.503 C163.524,201.047 166.946,199.589 169.565,198.136 C176.99,194.348 184.012,189.8 190.637,184.488 C197.26,179.175 203.338,173.388 208.872,167.128 Z M264.993,127.603 C263.826,127.314 261.861,126.914 259.097,126.401 C256.329,125.893 253.491,125.419 250.579,124.982 C247.087,124.402 243.373,123.82 239.443,123.235 C239.006,125.567 238.352,128.039 237.479,130.66 C236.605,133.281 235.62,135.867 234.53,138.413 C233.439,140.962 232.238,143.4 230.927,145.727 C229.618,148.058 228.378,150.095 227.214,151.842 C222.553,158.829 217.243,165.273 211.274,171.167 C205.302,177.063 198.97,182.412 192.276,187.217 C185.868,191.584 179.099,195.587 171.967,199.229 C164.831,202.864 157.409,205.267 149.693,206.434 C144.89,207.308 140.704,207.159 137.138,205.997 C133.569,204.83 130.768,202.903 128.731,200.21 C126.691,197.514 125.455,194.204 125.018,190.274 C124.582,186.343 125.162,182.047 126.766,177.391 C129.823,168.076 133.972,160.177 139.213,153.698 C144.453,147.222 150.421,141.872 157.118,137.648 C163.813,133.426 171.018,130.152 178.736,127.82 C186.453,125.495 194.166,123.672 201.884,122.362 C206.978,121.636 212.147,121.088 217.388,120.723 C222.629,120.363 227.794,120.471 232.892,121.052 C233.62,117.851 233.985,114.468 233.985,110.897 C233.985,107.332 233.509,103.877 232.566,100.524 C231.617,97.178 230.198,94.012 228.307,91.026 C226.412,88.045 223.864,85.457 220.664,83.273 C219.644,82.547 218.153,81.637 216.186,80.544 C214.222,79.453 212.073,78.397 209.745,77.378 C207.414,76.361 205.194,75.559 203.085,74.975 C200.974,74.397 199.264,74.321 197.954,74.758 C194.603,76.213 190.857,77.743 186.706,79.343 C182.558,80.946 178.371,82.475 174.152,83.93 C169.927,85.385 165.925,86.624 162.142,87.641 C158.354,88.662 155.225,89.316 152.75,89.607 C148.82,97.032 145.18,103.946 141.832,110.352 C138.919,115.887 136.118,121.199 133.426,126.293 C130.73,131.39 128.803,134.956 127.639,136.992 C123.415,144.417 118.939,151.661 114.209,158.721 C109.477,165.783 104.417,172.586 99.033,179.138 C93.935,185.541 88.224,191.584 81.891,197.262 C75.558,202.94 68.533,207.232 60.818,210.146 C57.904,211.31 54.885,212.22 51.755,212.876 C48.623,213.531 45.494,213.783 42.366,213.639 C39.233,213.493 36.214,212.876 33.303,211.784 C30.39,210.693 27.769,208.979 25.442,206.654 C22.529,203.738 20.453,200.391 19.218,196.608 C17.98,192.821 17.288,188.927 17.144,184.924 C17,180.919 17.363,176.954 18.236,173.023 C19.11,169.092 20.273,165.381 21.73,161.887 C24.788,154.026 28.936,146.82 34.177,140.269 C39.417,133.718 45.314,127.968 51.865,123.018 C55.502,120.254 60.016,117.449 65.404,114.609 C70.788,111.771 76.466,109.259 82.437,107.076 C88.404,104.891 94.338,103.144 100.233,101.834 C106.129,100.524 111.48,100.017 116.284,100.306 C119.341,100.6 121.088,101.326 121.524,102.491 C121.961,103.657 121.668,104.891 120.651,106.202 C119.631,107.512 118.174,108.751 116.284,109.915 C114.39,111.082 112.642,111.88 111.043,112.316 C111.622,112.027 112.206,111.519 112.789,110.789 C113.37,110.061 113.807,109.298 114.1,108.496 C114.39,107.697 114.461,106.932 114.318,106.202 C114.171,105.476 113.588,104.891 112.572,104.455 C110.968,103.877 109.258,103.62 107.439,103.692 C105.618,103.766 103.909,103.877 102.308,104.018 C101.142,104.166 99.469,104.422 97.286,104.783 C95.102,105.148 92.591,105.657 89.752,106.313 C86.913,106.967 83.89,107.84 80.69,108.933 C77.486,110.024 74.357,111.371 71.3,112.972 C63.875,116.612 56.85,121.127 50.227,126.51 C43.601,131.899 38.107,138.085 33.74,145.073 C31.7,148.424 29.881,152.061 28.282,155.99 C26.677,159.92 25.442,163.962 24.569,168.111 C23.696,172.258 23.259,176.446 23.259,180.665 C23.259,184.887 23.914,189.035 25.224,193.114 C26.24,196.46 27.845,199.3 30.028,201.629 C32.211,203.957 34.723,205.813 37.562,207.199 C40.401,208.58 43.492,209.415 46.843,209.708 C50.19,209.999 53.536,209.781 56.888,209.054 C60.961,208.181 64.783,206.795 68.352,204.907 C71.917,203.012 75.265,200.756 78.396,198.136 C81.525,195.515 84.473,192.638 87.24,189.511 C90.004,186.378 92.625,183.212 95.102,180.011 C100.343,173.171 105.072,166.075 109.296,158.721 C113.516,151.37 117.594,143.909 121.524,136.338 C125.455,128.622 129.348,120.98 133.207,113.409 C137.063,105.841 141.031,98.199 145.108,90.481 C144.378,90.481 143.215,90.626 141.614,90.917 C140.011,91.211 138.373,91.428 136.701,91.572 C135.026,91.719 133.46,91.647 132.007,91.354 C130.55,91.063 129.676,90.481 129.386,89.607 C128.803,87.86 129.53,86.222 131.57,84.692 C133.607,83.164 136.08,81.745 138.995,80.435 C141.904,79.125 144.743,78.032 147.509,77.159 C150.273,76.285 152.096,75.707 152.97,75.411 C158.21,65.951 163.704,56.633 169.455,47.461 C175.205,38.289 181.937,29.483 189.655,21.039 C183.977,19.437 178.443,18.636 173.058,18.636 C169.271,18.636 165.597,18.675 162.031,18.746 C158.463,18.82 154.861,19.22 151.223,19.946 C148.165,20.53 144.781,21.367 141.069,22.458 C137.356,23.551 133.644,24.861 129.932,26.388 C126.22,27.918 122.65,29.702 119.232,31.738 C115.809,33.779 112.789,35.962 110.17,38.289 C103.182,44.552 98.886,50.227 97.286,55.323 C95.682,60.421 96.085,64.351 98.487,67.116 C100.888,69.882 104.929,71.229 110.606,71.155 C116.284,71.083 122.978,69.008 130.696,64.931 C131.57,64.495 132.515,63.804 133.535,62.856 C134.551,61.911 135.244,60.966 135.609,60.016 C135.971,59.074 135.861,58.2 135.282,57.396 C134.699,56.599 133.242,56.197 130.914,56.197 C131.495,55.906 132.405,55.579 133.644,55.214 C134.879,54.851 136.118,54.634 137.356,54.558 C138.592,54.487 139.721,54.634 140.741,54.995 C141.758,55.36 142.413,56.125 142.706,57.287 C142.85,58.454 142.304,59.691 141.069,61.001 C139.83,62.311 138.339,63.55 136.593,64.712 C134.846,65.879 133.06,66.933 131.242,67.878 C129.42,68.827 128.001,69.516 126.984,69.953 C126.254,70.246 124.582,70.827 121.961,71.701 C119.341,72.574 116.427,73.158 113.226,73.447 C110.022,73.741 106.818,73.523 103.619,72.791 C100.414,72.065 97.941,70.173 96.194,67.116 C95.174,65.368 94.665,63.55 94.665,61.655 C94.665,59.764 94.993,57.872 95.648,55.977 C96.304,54.087 97.177,52.266 98.269,50.519 C99.36,48.772 100.486,47.17 101.653,45.714 C105.437,40.766 110.17,36.471 115.847,32.831 C121.524,29.194 127.421,26.137 133.535,23.659 C139.65,21.184 145.617,19.292 151.44,17.981 C157.261,16.671 162.213,15.873 166.289,15.58 C175.168,14.852 184.049,15.361 192.932,17.108 C194.677,15.509 196.35,13.979 197.954,12.523 C199.264,11.358 200.574,10.157 201.884,8.918 C203.195,7.684 204.211,6.774 204.942,6.189 C205.522,5.609 206.721,4.735 208.544,3.569 C210.363,2.406 212.147,1.495 213.894,0.839 C215.641,0.185 217.023,0.114 218.044,0.622 C219.059,1.133 219.206,2.914 218.481,5.972 C217.608,9.029 215.861,11.795 213.24,14.27 C213.82,13.69 214.146,12.925 214.222,11.975 C214.293,11.03 214.185,10.12 213.894,9.246 C213.601,8.373 213.055,7.684 212.255,7.171 C211.454,6.663 210.472,6.626 209.309,7.063 C206.395,8.084 203.812,9.575 201.556,11.539 C199.298,13.505 197.004,15.509 194.677,17.545 C198.314,18.566 201.884,19.694 205.378,20.93 C208.872,22.169 212.219,23.805 215.423,25.843 C218.333,27.736 221.026,29.958 223.502,32.503 C225.975,35.052 227.577,38.072 228.307,41.566 C229.18,45.206 228.816,48.663 227.214,51.938 C225.611,55.214 223.575,58.089 221.101,60.564 C218.622,63.041 215.861,65.225 212.803,67.116 C209.745,69.008 206.54,70.755 203.195,72.354 C208.872,73.228 214.403,74.866 219.791,77.269 C225.173,79.671 229.689,83.202 233.329,87.86 C237.114,92.664 239.406,98.051 240.207,104.018 C241.005,109.989 240.897,115.887 239.88,121.708 C243.517,122.438 247.305,123.235 251.236,124.109 C255.166,124.982 258.476,125.784 261.172,126.51 C263.863,127.242 265.72,127.75 266.74,128.039 C267.756,128.333 267.176,128.187 264.993,127.603 Z" id="Fill-1" fill="#FFFFFF" mask="url(#mask-2)"></path>
            <polyline id="Fill-3" fill="#FFFFFF" mask="url(#mask-2)" points="6.379 240.049 0 240.049 0 236.772 16.322 236.772 16.322 240.049 9.943 240.049 9.943 256.889 6.379 256.889 6.379 240.049"></polyline>
        </g>
        <polyline id="Fill-5" fill="#FFFFFF" points="26.515 236.772 30.05 236.772 30.05 245.135 39.65 245.135 39.65 236.772 43.184 236.772 43.184 256.889 39.65 256.889 39.65 248.411 30.05 248.411 30.05 256.889 26.515 256.889 26.515 236.772"></polyline>
        <polyline id="Fill-6" fill="#FFFFFF" points="54.812 236.772 69.729 236.772 69.729 239.934 58.347 239.934 58.347 245.163 68.435 245.163 68.435 248.326 58.347 248.326 58.347 253.729 69.873 253.729 69.873 256.889 54.812 256.889 54.812 236.772"></polyline>
        <path d="M104.944,253.757 C107.36,253.757 108.826,252.809 108.826,250.998 L108.826,250.941 C108.826,249.245 107.475,248.24 104.686,248.24 L99.082,248.24 L99.082,253.757 L104.944,253.757 Z M103.911,245.249 C106.181,245.249 107.704,244.359 107.704,242.52 L107.704,242.462 C107.704,240.882 106.439,239.906 104.169,239.906 L99.082,239.906 L99.082,245.249 L103.911,245.249 Z M95.604,236.772 L104.628,236.772 C106.929,236.772 108.74,237.405 109.888,238.554 C110.78,239.445 111.239,240.536 111.239,241.888 L111.239,241.946 C111.239,244.359 109.859,245.653 108.364,246.429 C110.723,247.233 112.361,248.584 112.361,251.314 L112.361,251.371 C112.361,254.964 109.4,256.889 104.915,256.889 L95.604,256.889 L95.604,236.772 Z" id="Fill-7" fill="#FFFFFF"></path>
        <path d="M122.609,256.889 L126.087,256.889 L126.087,241.715 L122.609,241.715 L122.609,256.889 Z M122.466,239.387 L126.202,239.387 L126.202,236.082 L122.466,236.082 L122.466,239.387 Z" id="Fill-8" fill="#FFFFFF"></path>
        <path d="M153.927,246.888 L153.927,246.83 C153.927,242.922 151.083,239.674 147.089,239.674 C143.094,239.674 140.307,242.865 140.307,246.774 L140.307,246.83 C140.307,250.739 143.151,253.987 147.146,253.987 C151.141,253.987 153.927,250.796 153.927,246.888 Z M136.6,246.888 L136.6,246.83 C136.6,241.169 140.967,236.427 147.146,236.427 C153.325,236.427 157.634,241.112 157.634,246.774 L157.634,246.83 C157.634,252.492 153.267,257.234 147.089,257.234 C140.91,257.234 136.6,252.549 136.6,246.888 Z" id="Fill-9" fill="#FFFFFF"></path>
        <path d="M166.882,253.958 L169.008,251.429 C170.934,253.096 172.86,254.044 175.359,254.044 C177.542,254.044 178.923,253.038 178.923,251.515 L178.923,251.457 C178.923,250.021 178.119,249.245 174.383,248.383 C170.1,247.348 167.686,246.083 167.686,242.376 L167.686,242.319 C167.686,238.869 170.561,236.485 174.555,236.485 C177.486,236.485 179.815,237.376 181.855,239.014 L179.958,241.686 C178.148,240.335 176.337,239.617 174.497,239.617 C172.429,239.617 171.221,240.68 171.221,242.003 L171.221,242.06 C171.221,243.613 172.142,244.301 175.993,245.221 C180.245,246.255 182.457,247.779 182.457,251.114 L182.457,251.17 C182.457,254.935 179.499,257.176 175.273,257.176 C172.2,257.176 169.295,256.114 166.882,253.958" id="Fill-10" fill="#FFFFFF"></path>
        <path d="M191.443,253.958 L193.57,251.429 C195.495,253.096 197.42,254.044 199.92,254.044 C202.104,254.044 203.484,253.038 203.484,251.515 L203.484,251.457 C203.484,250.021 202.68,249.245 198.944,248.383 C194.661,247.348 192.246,246.083 192.246,242.376 L192.246,242.319 C192.246,238.869 195.121,236.485 199.116,236.485 C202.046,236.485 204.375,237.376 206.415,239.014 L204.519,241.686 C202.708,240.335 200.898,239.617 199.059,239.617 C196.99,239.617 195.782,240.68 195.782,242.003 L195.782,242.06 C195.782,243.613 196.703,244.301 200.553,245.221 C204.806,246.255 207.019,247.779 207.019,251.114 L207.019,251.17 C207.019,254.935 204.06,257.176 199.833,257.176 C196.76,257.176 193.857,256.114 191.443,253.958" id="Fill-11" fill="#FFFFFF"></path>
        <path d="M229.4,248.9 L225.922,240.854 L222.473,248.9 L229.4,248.9 Z M224.341,236.628 L227.618,236.628 L236.47,256.889 L232.734,256.889 L230.694,252.033 L221.181,252.033 L219.111,256.889 L215.49,256.889 L224.341,236.628 Z" id="Fill-12" fill="#FFFFFF"></path>
        <g id="Group-18" transform="translate(11.000000, 236.000000)">
            <mask id="mask-4" fill="white">
                <use xlink:href="#path-3"></use>
            </mask>
            <g id="Clip-14"></g>
            <polyline id="Fill-13" fill="#FFFFFF" mask="url(#mask-4)" points="237.73 4.049 231.351 4.049 231.351 0.772 247.672 0.772 247.672 4.049 241.293 4.049 241.293 20.889 237.73 20.889 237.73 4.049"></polyline>
            <path d="M17.748,52.655 L17.748,52.597 C17.748,48.689 14.904,45.441 10.91,45.441 C6.913,45.441 4.126,48.631 4.126,52.539 L4.126,52.597 C4.126,56.505 6.971,59.753 10.967,59.753 C14.961,59.753 17.748,56.563 17.748,52.655 Z M0.419,52.655 L0.419,52.597 C0.419,46.936 4.787,42.194 10.967,42.194 C17.145,42.194 21.455,46.878 21.455,52.539 L21.455,52.597 C21.455,58.258 17.088,63 10.91,63 C4.729,63 0.419,58.316 0.419,52.655 Z" id="Fill-15" fill="#FFFFFF" mask="url(#mask-4)"></path>
            <path d="M40.9,52.511 C43.43,52.511 45.038,51.19 45.038,49.148 L45.038,49.091 C45.038,46.936 43.488,45.758 40.871,45.758 L35.727,45.758 L35.727,52.511 L40.9,52.511 Z M32.191,42.538 L41.159,42.538 C43.689,42.538 45.671,43.285 46.963,44.55 C48.028,45.642 48.63,47.137 48.63,48.89 L48.63,48.948 C48.63,52.252 46.647,54.236 43.832,55.04 L49.264,62.656 L45.095,62.656 L40.154,55.643 L35.727,55.643 L35.727,62.656 L32.191,62.656 L32.191,42.538 Z" id="Fill-16" fill="#FFFFFF" mask="url(#mask-4)"></path>
            <path d="M58.536,52.655 L58.536,52.597 C58.536,46.878 62.818,42.194 68.912,42.194 C72.619,42.194 74.86,43.487 76.786,45.326 L74.516,47.942 C72.906,46.447 71.182,45.441 68.883,45.441 C65.03,45.441 62.244,48.603 62.244,52.539 L62.244,52.597 C62.244,56.534 65.03,59.753 68.883,59.753 C71.354,59.753 72.935,58.747 74.659,57.138 L76.929,59.438 C74.831,61.621 72.533,63 68.766,63 C62.904,63 58.536,58.431 58.536,52.655" id="Fill-17" fill="#FFFFFF" mask="url(#mask-4)"></path>
        </g>
        <polyline id="Fill-19" fill="#FFFFFF" points="98.089 278.538 101.624 278.538 101.624 286.902 111.225 286.902 111.225 278.538 114.758 278.538 114.758 298.656 111.225 298.656 111.225 290.178 101.624 290.178 101.624 298.656 98.089 298.656 98.089 278.538"></polyline>
        <g id="Group-23" transform="translate(126.000000, 278.000000)">
            <mask id="mask-6" fill="white">
                <use xlink:href="#path-5"></use>
            </mask>
            <g id="Clip-21"></g>
            <polyline id="Fill-20" fill="#FFFFFF" mask="url(#mask-6)" points="0.386 0.538 15.304 0.538 15.304 3.701 3.921 3.701 3.921 8.93 14.01 8.93 14.01 12.092 3.921 12.092 3.921 17.495 15.447 17.495 15.447 20.656 0.386 20.656 0.386 0.538"></polyline>
            <path d="M24.749,17.725 L26.875,15.196 C28.801,16.863 30.726,17.811 33.226,17.811 C35.41,17.811 36.789,16.805 36.789,15.282 L36.789,15.224 C36.789,13.787 35.986,13.012 32.249,12.15 C27.966,11.115 25.553,9.85 25.553,6.143 L25.553,6.085 C25.553,2.636 28.427,0.251 32.422,0.251 C35.352,0.251 37.681,1.142 39.722,2.781 L37.825,5.452 C36.014,4.102 34.204,3.383 32.365,3.383 C30.295,3.383 29.088,4.447 29.088,5.769 L29.088,5.826 C29.088,7.379 30.008,8.068 33.86,8.988 C38.112,10.022 40.325,11.545 40.325,14.879 L40.325,14.937 C40.325,18.701 37.366,20.943 33.14,20.943 C30.066,20.943 27.162,19.88 24.749,17.725" id="Fill-22" fill="#FFFFFF" mask="url(#mask-6)"></path>
        </g>
        <polyline id="Fill-24" fill="#FFFFFF" points="181.463 281.815 175.084 281.815 175.084 278.538 191.409 278.538 191.409 281.815 185.027 281.815 185.027 298.656 181.463 298.656 181.463 281.815"></polyline>
        <path d="M210.308,288.511 C212.838,288.511 214.446,287.19 214.446,285.148 L214.446,285.091 C214.446,282.936 212.895,281.758 210.279,281.758 L205.134,281.758 L205.134,288.511 L210.308,288.511 Z M201.599,278.538 L210.566,278.538 C213.096,278.538 215.079,279.285 216.37,280.55 C217.435,281.642 218.037,283.137 218.037,284.89 L218.037,284.948 C218.037,288.252 216.055,290.236 213.24,291.04 L218.671,298.656 L214.503,298.656 L209.561,291.643 L205.134,291.643 L205.134,298.656 L201.599,298.656 L201.599,278.538 Z" id="Fill-25" fill="#FFFFFF"></path>
        <path d="M241.018,290.666 L237.54,282.62 L234.091,290.666 L241.018,290.666 Z M235.959,278.395 L239.236,278.395 L248.088,298.656 L244.352,298.656 L242.312,293.799 L232.799,293.799 L230.729,298.656 L227.107,298.656 L235.959,278.395 Z" id="Fill-26" fill="#FFFFFF"></path>
    </g>
</svg>